<mxfile host="Electron" modified="2024-09-06T20:37:59.490Z" agent="Mozilla/5.0 (Windows NT 10.0; Win64; x64) AppleWebKit/537.36 (KHTML, like Gecko) draw.io/22.0.2 Chrome/114.0.5735.289 Electron/25.8.4 Safari/537.36" etag="zieDwFAmj8hyVkXLzymZ" version="22.0.2" type="device">
  <diagram name="第 1 页" id="XWjhuGjZIDZvUrzgFzQ1">
    <mxGraphModel dx="2366" dy="1169" grid="1" gridSize="10" guides="1" tooltips="1" connect="1" arrows="1" fold="1" page="1" pageScale="1" pageWidth="827" pageHeight="1169" math="0" shadow="0">
      <root>
        <mxCell id="0" />
        <mxCell id="1" parent="0" />
        <mxCell id="pFvbjGyhtthrjW876RB9-34" value="" style="endArrow=classic;html=1;rounded=0;exitX=1;exitY=0.5;exitDx=0;exitDy=0;entryX=0;entryY=0.525;entryDx=0;entryDy=0;entryPerimeter=0;" parent="1" source="FcLobYDYsunlRHYjwb2t-60" target="FcLobYDYsunlRHYjwb2t-40" edge="1">
          <mxGeometry width="50" height="50" relative="1" as="geometry">
            <mxPoint x="680.03" y="1070" as="sourcePoint" />
            <mxPoint x="880" y="1130" as="targetPoint" />
          </mxGeometry>
        </mxCell>
        <mxCell id="pFvbjGyhtthrjW876RB9-33" value="" style="endArrow=classic;html=1;rounded=0;exitX=1;exitY=0.5;exitDx=0;exitDy=0;entryX=0;entryY=0.55;entryDx=0;entryDy=0;entryPerimeter=0;" parent="1" source="FcLobYDYsunlRHYjwb2t-62" target="FcLobYDYsunlRHYjwb2t-40" edge="1">
          <mxGeometry width="50" height="50" relative="1" as="geometry">
            <mxPoint x="899.97" y="1230" as="sourcePoint" />
            <mxPoint x="880" y="1140" as="targetPoint" />
          </mxGeometry>
        </mxCell>
        <mxCell id="pFvbjGyhtthrjW876RB9-32" value="" style="endArrow=classic;html=1;rounded=0;exitX=0;exitY=0.5;exitDx=0;exitDy=0;entryX=1;entryY=0.6;entryDx=0;entryDy=0;entryPerimeter=0;" parent="1" source="FcLobYDYsunlRHYjwb2t-55" target="FcLobYDYsunlRHYjwb2t-40" edge="1">
          <mxGeometry width="50" height="50" relative="1" as="geometry">
            <mxPoint x="1260" y="1032.5" as="sourcePoint" />
            <mxPoint x="1080" y="1160" as="targetPoint" />
          </mxGeometry>
        </mxCell>
        <mxCell id="pFvbjGyhtthrjW876RB9-31" value="" style="endArrow=classic;html=1;rounded=0;exitX=0;exitY=0.5;exitDx=0;exitDy=0;entryX=1;entryY=0.575;entryDx=0;entryDy=0;entryPerimeter=0;" parent="1" source="FcLobYDYsunlRHYjwb2t-53" target="FcLobYDYsunlRHYjwb2t-40" edge="1">
          <mxGeometry width="50" height="50" relative="1" as="geometry">
            <mxPoint x="1230" y="1160" as="sourcePoint" />
            <mxPoint x="1080" y="1140" as="targetPoint" />
          </mxGeometry>
        </mxCell>
        <mxCell id="FcLobYDYsunlRHYjwb2t-40" value="&lt;div style=&quot;border-color: var(--border-color);&quot;&gt;&lt;u style=&quot;border-color: var(--border-color);&quot;&gt;&lt;font face=&quot;新宋体&quot;&gt;用户ID&lt;/font&gt;&lt;/u&gt;&lt;/div&gt;&lt;div style=&quot;border-color: var(--border-color);&quot;&gt;&lt;font face=&quot;新宋体&quot;&gt;用户名&lt;/font&gt;&lt;/div&gt;&lt;div style=&quot;border-color: var(--border-color);&quot;&gt;&lt;font face=&quot;新宋体&quot;&gt;密码&lt;/font&gt;&lt;/div&gt;&lt;div style=&quot;border-color: var(--border-color);&quot;&gt;&lt;font face=&quot;新宋体&quot;&gt;手机号码&lt;/font&gt;&lt;/div&gt;&lt;div style=&quot;border-color: var(--border-color);&quot;&gt;&lt;font face=&quot;新宋体&quot;&gt;注册日期&lt;/font&gt;&lt;/div&gt;&lt;div style=&quot;border-color: var(--border-color);&quot;&gt;&lt;font face=&quot;新宋体&quot;&gt;上次登录时间&lt;/font&gt;&lt;/div&gt;&lt;div style=&quot;border-color: var(--border-color);&quot;&gt;&lt;font face=&quot;新宋体&quot;&gt;用户角色&lt;/font&gt;&lt;/div&gt;&lt;div style=&quot;border-color: var(--border-color);&quot;&gt;&lt;span style=&quot;border-color: var(--border-color); background-color: initial;&quot;&gt;&lt;font face=&quot;新宋体&quot;&gt;用户状态&lt;/font&gt;&lt;/span&gt;&lt;/div&gt;&lt;div style=&quot;border-color: var(--border-color);&quot;&gt;&lt;span style=&quot;border-color: var(--border-color); background-color: initial;&quot;&gt;&lt;font face=&quot;新宋体&quot;&gt;头像链接&lt;/font&gt;&lt;/span&gt;&lt;/div&gt;&lt;div style=&quot;border-color: var(--border-color);&quot;&gt;&lt;span style=&quot;border-color: var(--border-color); background-color: initial;&quot;&gt;&lt;font face=&quot;新宋体&quot;&gt;个人简介&lt;/font&gt;&lt;/span&gt;&lt;/div&gt;&lt;div style=&quot;border-color: var(--border-color);&quot;&gt;&lt;span style=&quot;border-color: var(--border-color); background-color: initial;&quot;&gt;&lt;font face=&quot;新宋体&quot;&gt;性别&lt;/font&gt;&lt;/span&gt;&lt;/div&gt;&lt;div style=&quot;border-color: var(--border-color);&quot;&gt;&lt;span style=&quot;border-color: var(--border-color); background-color: initial;&quot;&gt;&lt;font face=&quot;新宋体&quot;&gt;出生日期&lt;/font&gt;&lt;/span&gt;&lt;/div&gt;&lt;div style=&quot;border-color: var(--border-color);&quot;&gt;&lt;span style=&quot;border-color: var(--border-color); background-color: initial;&quot;&gt;&lt;font face=&quot;新宋体&quot;&gt;经验点数&lt;/font&gt;&lt;/span&gt;&lt;/div&gt;&lt;div style=&quot;border-color: var(--border-color);&quot;&gt;&lt;span style=&quot;border-color: var(--border-color); background-color: initial;&quot;&gt;&lt;font face=&quot;新宋体&quot;&gt;关注数&lt;/font&gt;&lt;/span&gt;&lt;/div&gt;&lt;div style=&quot;border-color: var(--border-color);&quot;&gt;&lt;span style=&quot;border-color: var(--border-color); background-color: initial;&quot;&gt;&lt;font face=&quot;新宋体&quot;&gt;被关注数&lt;/font&gt;&lt;/span&gt;&lt;/div&gt;&lt;div style=&quot;border-color: var(--border-color);&quot;&gt;&lt;font face=&quot;新宋体&quot;&gt;&lt;span style=&quot;border-color: var(--border-color); background-color: initial;&quot;&gt;收&lt;/span&gt;&lt;span style=&quot;border-color: var(--border-color); background-color: initial;&quot;&gt;藏数&lt;/span&gt;&lt;/font&gt;&lt;/div&gt;&lt;div style=&quot;border-color: var(--border-color);&quot;&gt;&lt;span style=&quot;border-color: var(--border-color); background-color: initial;&quot;&gt;&lt;font face=&quot;新宋体&quot;&gt;被收藏数&lt;/font&gt;&lt;/span&gt;&lt;/div&gt;&lt;div style=&quot;border-color: var(--border-color);&quot;&gt;&lt;span style=&quot;border-color: var(--border-color); background-color: initial;&quot;&gt;&lt;font face=&quot;新宋体&quot;&gt;点赞数&lt;/font&gt;&lt;/span&gt;&lt;/div&gt;&lt;div style=&quot;border-color: var(--border-color);&quot;&gt;&lt;span style=&quot;border-color: var(--border-color); background-color: initial;&quot;&gt;&lt;font face=&quot;新宋体&quot;&gt;被点赞数&lt;/font&gt;&lt;/span&gt;&lt;/div&gt;&lt;div style=&quot;border-color: var(--border-color);&quot;&gt;&lt;span style=&quot;border-color: var(--border-color); background-color: initial;&quot;&gt;&lt;font face=&quot;新宋体&quot;&gt;留言数&lt;/font&gt;&lt;/span&gt;&lt;/div&gt;" style="whiteSpace=wrap;html=1;align=center;" parent="1" vertex="1">
          <mxGeometry x="900" y="960" width="160" height="320" as="geometry" />
        </mxCell>
        <mxCell id="FcLobYDYsunlRHYjwb2t-41" value="&lt;b&gt;&lt;font face=&quot;新宋体&quot;&gt;用户&lt;/font&gt;&lt;/b&gt;" style="whiteSpace=wrap;html=1;align=center;fillColor=#647687;fontColor=#ffffff;strokeColor=#314354;" parent="1" vertex="1">
          <mxGeometry x="900.03" y="930" width="160" height="30" as="geometry" />
        </mxCell>
        <mxCell id="FcLobYDYsunlRHYjwb2t-43" value="&lt;b&gt;&lt;font face=&quot;新宋体&quot;&gt;用户设置&lt;/font&gt;&lt;/b&gt;" style="whiteSpace=wrap;html=1;align=center;fillColor=#647687;fontColor=#ffffff;strokeColor=#314354;" parent="1" vertex="1">
          <mxGeometry x="760" y="1800" width="160" height="30" as="geometry" />
        </mxCell>
        <mxCell id="FcLobYDYsunlRHYjwb2t-45" value="&lt;b&gt;&lt;font face=&quot;新宋体&quot;&gt;用户打卡&lt;/font&gt;&lt;/b&gt;" style="whiteSpace=wrap;html=1;align=center;fillColor=#647687;fontColor=#ffffff;strokeColor=#314354;" parent="1" vertex="1">
          <mxGeometry x="1040.03" y="2000" width="160" height="30" as="geometry" />
        </mxCell>
        <mxCell id="FcLobYDYsunlRHYjwb2t-47" value="&lt;div style=&quot;border-color: var(--border-color);&quot;&gt;&lt;u style=&quot;border-color: var(--border-color);&quot;&gt;&lt;font face=&quot;新宋体&quot;&gt;打卡记录ID&lt;/font&gt;&lt;/u&gt;&lt;/div&gt;&lt;div style=&quot;border-color: var(--border-color);&quot;&gt;&lt;font face=&quot;新宋体&quot;&gt;用户ID&lt;br&gt;&lt;/font&gt;&lt;/div&gt;&lt;div style=&quot;border-color: var(--border-color);&quot;&gt;&lt;font face=&quot;新宋体&quot;&gt;打卡时间&lt;/font&gt;&lt;/div&gt;" style="whiteSpace=wrap;html=1;align=center;" parent="1" vertex="1">
          <mxGeometry x="1040.03" y="2030" width="160" height="60" as="geometry" />
        </mxCell>
        <mxCell id="FcLobYDYsunlRHYjwb2t-49" value="&lt;div style=&quot;border-color: var(--border-color);&quot;&gt;&lt;span style=&quot;font-family: 新宋体; background-color: initial;&quot;&gt;关注时间&lt;/span&gt;&lt;br&gt;&lt;/div&gt;" style="whiteSpace=wrap;html=1;align=center;" parent="1" vertex="1">
          <mxGeometry x="479.97" y="2060" width="160" height="30" as="geometry" />
        </mxCell>
        <mxCell id="FcLobYDYsunlRHYjwb2t-50" value="&lt;b&gt;&lt;font face=&quot;新宋体&quot;&gt;用户留言&lt;/font&gt;&lt;/b&gt;" style="whiteSpace=wrap;html=1;align=center;fillColor=#647687;fontColor=#ffffff;strokeColor=#314354;" parent="1" vertex="1">
          <mxGeometry x="1320.03" y="1980" width="160" height="30" as="geometry" />
        </mxCell>
        <mxCell id="FcLobYDYsunlRHYjwb2t-51" value="&lt;div style=&quot;border-color: var(--border-color);&quot;&gt;&lt;u style=&quot;border-color: var(--border-color);&quot;&gt;&lt;font face=&quot;新宋体&quot;&gt;留言ID&lt;/font&gt;&lt;/u&gt;&lt;/div&gt;&lt;div style=&quot;border-color: var(--border-color);&quot;&gt;&lt;font face=&quot;新宋体&quot;&gt;用户ID&lt;br&gt;&lt;/font&gt;&lt;/div&gt;&lt;div style=&quot;border-color: var(--border-color);&quot;&gt;&lt;font face=&quot;新宋体&quot;&gt;留言者ID&lt;/font&gt;&lt;/div&gt;&lt;div style=&quot;border-color: var(--border-color);&quot;&gt;&lt;font face=&quot;新宋体&quot;&gt;留言内容&lt;/font&gt;&lt;/div&gt;&lt;div style=&quot;border-color: var(--border-color);&quot;&gt;&lt;font face=&quot;新宋体&quot;&gt;留言时间&lt;/font&gt;&lt;/div&gt;" style="whiteSpace=wrap;html=1;align=center;" parent="1" vertex="1">
          <mxGeometry x="1320.03" y="2010" width="160" height="80" as="geometry" />
        </mxCell>
        <mxCell id="FcLobYDYsunlRHYjwb2t-52" value="&lt;b&gt;&lt;font face=&quot;新宋体&quot;&gt;帖子&lt;/font&gt;&lt;/b&gt;" style="whiteSpace=wrap;html=1;align=center;fillColor=#647687;fontColor=#ffffff;strokeColor=#314354;" parent="1" vertex="1">
          <mxGeometry x="1320" y="830" width="160" height="30" as="geometry" />
        </mxCell>
        <mxCell id="FcLobYDYsunlRHYjwb2t-53" value="&lt;div style=&quot;border-color: var(--border-color);&quot;&gt;&lt;u style=&quot;border-color: var(--border-color);&quot;&gt;&lt;font face=&quot;新宋体&quot;&gt;帖子ID&lt;/font&gt;&lt;/u&gt;&lt;/div&gt;&lt;div style=&quot;border-color: var(--border-color);&quot;&gt;&lt;font face=&quot;新宋体&quot;&gt;发贴用户ID&lt;/font&gt;&lt;/div&gt;&lt;div style=&quot;border-color: var(--border-color);&quot;&gt;&lt;font face=&quot;新宋体&quot;&gt;帖子分类ID&lt;/font&gt;&lt;/div&gt;&lt;div style=&quot;border-color: var(--border-color);&quot;&gt;&lt;div style=&quot;border-color: var(--border-color);&quot;&gt;&lt;font face=&quot;新宋体&quot;&gt;标题&lt;/font&gt;&lt;/div&gt;&lt;div style=&quot;border-color: var(--border-color);&quot;&gt;&lt;font face=&quot;新宋体&quot;&gt;内容&lt;/font&gt;&lt;/div&gt;&lt;div style=&quot;border-color: var(--border-color);&quot;&gt;&lt;font face=&quot;新宋体&quot;&gt;创建时间&lt;/font&gt;&lt;/div&gt;&lt;div style=&quot;border-color: var(--border-color);&quot;&gt;&lt;font face=&quot;新宋体&quot;&gt;更新时间&lt;/font&gt;&lt;/div&gt;&lt;div style=&quot;border-color: var(--border-color);&quot;&gt;&lt;font face=&quot;新宋体&quot;&gt;是否置顶&lt;/font&gt;&lt;/div&gt;&lt;div style=&quot;border-color: var(--border-color);&quot;&gt;&lt;font face=&quot;新宋体&quot;&gt;点赞数&lt;/font&gt;&lt;/div&gt;&lt;div style=&quot;border-color: var(--border-color);&quot;&gt;&lt;font face=&quot;新宋体&quot;&gt;点&lt;/font&gt;&lt;span style=&quot;font-family: 新宋体; background-color: initial;&quot;&gt;踩数&lt;/span&gt;&lt;/div&gt;&lt;div style=&quot;border-color: var(--border-color);&quot;&gt;&lt;span style=&quot;font-family: 新宋体; background-color: initial;&quot;&gt;收藏数&lt;/span&gt;&lt;/div&gt;&lt;div style=&quot;border-color: var(--border-color);&quot;&gt;&lt;span style=&quot;font-family: 新宋体; background-color: initial;&quot;&gt;评论数&lt;/span&gt;&lt;/div&gt;&lt;div style=&quot;border-color: var(--border-color);&quot;&gt;&lt;span style=&quot;font-family: 新宋体; background-color: initial;&quot;&gt;图片链接&lt;/span&gt;&lt;/div&gt;&lt;/div&gt;" style="whiteSpace=wrap;html=1;align=center;" parent="1" vertex="1">
          <mxGeometry x="1320" y="860" width="160" height="190" as="geometry" />
        </mxCell>
        <mxCell id="FcLobYDYsunlRHYjwb2t-54" value="&lt;b&gt;&lt;font face=&quot;新宋体&quot;&gt;帖子评论&lt;/font&gt;&lt;/b&gt;" style="whiteSpace=wrap;html=1;align=center;fillColor=#647687;fontColor=#ffffff;strokeColor=#314354;" parent="1" vertex="1">
          <mxGeometry x="1320" y="1190" width="160" height="30" as="geometry" />
        </mxCell>
        <mxCell id="FcLobYDYsunlRHYjwb2t-55" value="&lt;div style=&quot;border-color: var(--border-color);&quot;&gt;&lt;u style=&quot;border-color: var(--border-color);&quot;&gt;&lt;font face=&quot;新宋体&quot;&gt;帖子评论ID&lt;/font&gt;&lt;/u&gt;&lt;/div&gt;&lt;div style=&quot;border-color: var(--border-color);&quot;&gt;&lt;font face=&quot;新宋体&quot;&gt;帖子ID&lt;/font&gt;&lt;/div&gt;&lt;div style=&quot;border-color: var(--border-color);&quot;&gt;&lt;div style=&quot;border-color: var(--border-color);&quot;&gt;&lt;span style=&quot;background-color: initial; font-family: 新宋体;&quot;&gt;用户ID&lt;/span&gt;&lt;br&gt;&lt;/div&gt;&lt;div style=&quot;border-color: var(--border-color);&quot;&gt;&lt;font face=&quot;新宋体&quot;&gt;父评论ID&lt;/font&gt;&lt;/div&gt;&lt;div style=&quot;border-color: var(--border-color);&quot;&gt;&lt;font face=&quot;新宋体&quot;&gt;评论内容&lt;/font&gt;&lt;/div&gt;&lt;div style=&quot;border-color: var(--border-color);&quot;&gt;&lt;font face=&quot;新宋体&quot;&gt;评论时间&lt;/font&gt;&lt;/div&gt;&lt;div style=&quot;border-color: var(--border-color);&quot;&gt;&lt;font face=&quot;新宋体&quot;&gt;点赞数&lt;/font&gt;&lt;/div&gt;&lt;div style=&quot;border-color: var(--border-color);&quot;&gt;&lt;font face=&quot;新宋体&quot;&gt;点踩数&lt;/font&gt;&lt;/div&gt;&lt;/div&gt;" style="whiteSpace=wrap;html=1;align=center;" parent="1" vertex="1">
          <mxGeometry x="1320" y="1220" width="160" height="120" as="geometry" />
        </mxCell>
        <mxCell id="FcLobYDYsunlRHYjwb2t-57" value="&lt;b&gt;&lt;font face=&quot;新宋体&quot;&gt;帖子举报&lt;/font&gt;&lt;/b&gt;" style="whiteSpace=wrap;html=1;align=center;fillColor=#647687;fontColor=#ffffff;strokeColor=#314354;" parent="1" vertex="1">
          <mxGeometry x="1320" y="570" width="160" height="30" as="geometry" />
        </mxCell>
        <mxCell id="FcLobYDYsunlRHYjwb2t-58" value="&lt;div style=&quot;border-color: var(--border-color);&quot;&gt;&lt;u style=&quot;border-color: var(--border-color);&quot;&gt;&lt;font face=&quot;新宋体&quot;&gt;帖子举报ID&lt;/font&gt;&lt;/u&gt;&lt;/div&gt;&lt;div style=&quot;border-color: var(--border-color);&quot;&gt;&lt;div style=&quot;border-color: var(--border-color);&quot;&gt;&lt;font face=&quot;新宋体&quot;&gt;举报者ID&lt;/font&gt;&lt;/div&gt;&lt;div style=&quot;border-color: var(--border-color);&quot;&gt;&lt;font face=&quot;新宋体&quot;&gt;被举报者ID&lt;/font&gt;&lt;/div&gt;&lt;div style=&quot;border-color: var(--border-color);&quot;&gt;&lt;font face=&quot;新宋体&quot;&gt;被举报帖子ID&lt;/font&gt;&lt;/div&gt;&lt;div style=&quot;border-color: var(--border-color);&quot;&gt;&lt;font face=&quot;新宋体&quot;&gt;举报原因&lt;/font&gt;&lt;/div&gt;&lt;div style=&quot;border-color: var(--border-color);&quot;&gt;&lt;font face=&quot;新宋体&quot;&gt;举报时间&lt;/font&gt;&lt;/div&gt;&lt;div style=&quot;border-color: var(--border-color);&quot;&gt;&lt;font face=&quot;新宋体&quot;&gt;处理状态&lt;/font&gt;&lt;/div&gt;&lt;/div&gt;" style="whiteSpace=wrap;html=1;align=center;" parent="1" vertex="1">
          <mxGeometry x="1320" y="600" width="160" height="110" as="geometry" />
        </mxCell>
        <mxCell id="FcLobYDYsunlRHYjwb2t-59" value="&lt;b&gt;&lt;font face=&quot;新宋体&quot;&gt;新闻&lt;/font&gt;&lt;/b&gt;" style="whiteSpace=wrap;html=1;align=center;fillColor=#647687;fontColor=#ffffff;strokeColor=#314354;" parent="1" vertex="1">
          <mxGeometry x="479.97" y="810" width="160" height="30" as="geometry" />
        </mxCell>
        <mxCell id="FcLobYDYsunlRHYjwb2t-60" value="&lt;div style=&quot;border-color: var(--border-color);&quot;&gt;&lt;u style=&quot;border-color: var(--border-color);&quot;&gt;&lt;font face=&quot;新宋体&quot;&gt;新闻ID&lt;/font&gt;&lt;/u&gt;&lt;/div&gt;&lt;div style=&quot;border-color: var(--border-color);&quot;&gt;&lt;font face=&quot;新宋体&quot;&gt;管理员ID&lt;/font&gt;&lt;/div&gt;&lt;div style=&quot;border-color: var(--border-color);&quot;&gt;&lt;font face=&quot;新宋体&quot;&gt;新闻标签ID&lt;/font&gt;&lt;/div&gt;&lt;div style=&quot;border-color: var(--border-color);&quot;&gt;&lt;div style=&quot;border-color: var(--border-color);&quot;&gt;&lt;font face=&quot;新宋体&quot;&gt;标题&lt;/font&gt;&lt;/div&gt;&lt;div style=&quot;border-color: var(--border-color);&quot;&gt;&lt;font face=&quot;新宋体&quot;&gt;新闻摘要&lt;/font&gt;&lt;/div&gt;&lt;div style=&quot;border-color: var(--border-color);&quot;&gt;&lt;font face=&quot;新宋体&quot;&gt;内容&lt;/font&gt;&lt;/div&gt;&lt;div style=&quot;border-color: var(--border-color);&quot;&gt;&lt;font face=&quot;新宋体&quot;&gt;创建时间&lt;/font&gt;&lt;/div&gt;&lt;div style=&quot;border-color: var(--border-color);&quot;&gt;&lt;font face=&quot;新宋体&quot;&gt;更新时间&lt;/font&gt;&lt;/div&gt;&lt;div style=&quot;border-color: var(--border-color);&quot;&gt;&lt;font face=&quot;新宋体&quot;&gt;封面图片链接&lt;/font&gt;&lt;/div&gt;&lt;div style=&quot;border-color: var(--border-color);&quot;&gt;&lt;font face=&quot;新宋体&quot;&gt;是否置顶&lt;/font&gt;&lt;/div&gt;&lt;div style=&quot;border-color: var(--border-color);&quot;&gt;&lt;font face=&quot;新宋体&quot;&gt;点赞数&lt;/font&gt;&lt;/div&gt;&lt;div style=&quot;border-color: var(--border-color);&quot;&gt;&lt;font face=&quot;新宋体&quot;&gt;点&lt;/font&gt;&lt;span style=&quot;font-family: 新宋体; background-color: initial;&quot;&gt;踩数&lt;/span&gt;&lt;/div&gt;&lt;div style=&quot;border-color: var(--border-color);&quot;&gt;&lt;span style=&quot;font-family: 新宋体; background-color: initial;&quot;&gt;收藏数&lt;/span&gt;&lt;/div&gt;&lt;div style=&quot;border-color: var(--border-color);&quot;&gt;&lt;span style=&quot;font-family: 新宋体; background-color: initial;&quot;&gt;评论数&lt;/span&gt;&lt;/div&gt;&lt;/div&gt;" style="whiteSpace=wrap;html=1;align=center;" parent="1" vertex="1">
          <mxGeometry x="479.97" y="840" width="160" height="210" as="geometry" />
        </mxCell>
        <mxCell id="FcLobYDYsunlRHYjwb2t-61" value="&lt;b&gt;&lt;font face=&quot;新宋体&quot;&gt;新闻评论&lt;/font&gt;&lt;/b&gt;" style="whiteSpace=wrap;html=1;align=center;fillColor=#647687;fontColor=#ffffff;strokeColor=#314354;" parent="1" vertex="1">
          <mxGeometry x="479.97" y="1190" width="160" height="30" as="geometry" />
        </mxCell>
        <mxCell id="FcLobYDYsunlRHYjwb2t-62" value="&lt;div style=&quot;border-color: var(--border-color);&quot;&gt;&lt;u style=&quot;border-color: var(--border-color);&quot;&gt;&lt;font face=&quot;新宋体&quot;&gt;新闻评论ID&lt;/font&gt;&lt;/u&gt;&lt;/div&gt;&lt;div style=&quot;border-color: var(--border-color);&quot;&gt;&lt;font face=&quot;新宋体&quot;&gt;新闻ID&lt;/font&gt;&lt;/div&gt;&lt;div style=&quot;border-color: var(--border-color);&quot;&gt;&lt;div style=&quot;border-color: var(--border-color);&quot;&gt;&lt;span style=&quot;background-color: initial; font-family: 新宋体;&quot;&gt;用户ID&lt;/span&gt;&lt;br&gt;&lt;/div&gt;&lt;div style=&quot;border-color: var(--border-color);&quot;&gt;&lt;font face=&quot;新宋体&quot;&gt;父评论ID&lt;/font&gt;&lt;/div&gt;&lt;div style=&quot;border-color: var(--border-color);&quot;&gt;&lt;font face=&quot;新宋体&quot;&gt;评论内容&lt;/font&gt;&lt;/div&gt;&lt;div style=&quot;border-color: var(--border-color);&quot;&gt;&lt;font face=&quot;新宋体&quot;&gt;评论时间&lt;/font&gt;&lt;/div&gt;&lt;div style=&quot;border-color: var(--border-color);&quot;&gt;&lt;font face=&quot;新宋体&quot;&gt;点赞数&lt;/font&gt;&lt;/div&gt;&lt;div style=&quot;border-color: var(--border-color);&quot;&gt;&lt;font face=&quot;新宋体&quot;&gt;点踩数&lt;/font&gt;&lt;/div&gt;&lt;/div&gt;" style="whiteSpace=wrap;html=1;align=center;" parent="1" vertex="1">
          <mxGeometry x="479.97" y="1220" width="160" height="120" as="geometry" />
        </mxCell>
        <mxCell id="FcLobYDYsunlRHYjwb2t-63" value="&lt;b&gt;&lt;font face=&quot;新宋体&quot;&gt;帖子评论举报&lt;/font&gt;&lt;/b&gt;" style="whiteSpace=wrap;html=1;align=center;fillColor=#647687;fontColor=#ffffff;strokeColor=#314354;" parent="1" vertex="1">
          <mxGeometry x="1320" y="1480" width="160" height="30" as="geometry" />
        </mxCell>
        <mxCell id="FcLobYDYsunlRHYjwb2t-64" value="&lt;div style=&quot;border-color: var(--border-color);&quot;&gt;&lt;u style=&quot;border-color: var(--border-color);&quot;&gt;&lt;font face=&quot;新宋体&quot;&gt;帖子评论举报ID&lt;/font&gt;&lt;/u&gt;&lt;/div&gt;&lt;div style=&quot;border-color: var(--border-color);&quot;&gt;&lt;div style=&quot;border-color: var(--border-color);&quot;&gt;&lt;font face=&quot;新宋体&quot;&gt;举报者ID&lt;/font&gt;&lt;/div&gt;&lt;div style=&quot;border-color: var(--border-color);&quot;&gt;&lt;font face=&quot;新宋体&quot;&gt;被举报者ID&lt;/font&gt;&lt;/div&gt;&lt;div style=&quot;border-color: var(--border-color);&quot;&gt;&lt;font face=&quot;新宋体&quot;&gt;被举报评论所属帖子ID&lt;/font&gt;&lt;/div&gt;&lt;div style=&quot;border-color: var(--border-color);&quot;&gt;&lt;font face=&quot;新宋体&quot;&gt;被举报评论ID&lt;/font&gt;&lt;/div&gt;&lt;div style=&quot;border-color: var(--border-color);&quot;&gt;&lt;font face=&quot;新宋体&quot;&gt;举报原因&lt;/font&gt;&lt;/div&gt;&lt;div style=&quot;border-color: var(--border-color);&quot;&gt;&lt;font face=&quot;新宋体&quot;&gt;举报时间&lt;/font&gt;&lt;/div&gt;&lt;div style=&quot;border-color: var(--border-color);&quot;&gt;&lt;font face=&quot;新宋体&quot;&gt;处理状态&lt;/font&gt;&lt;/div&gt;&lt;/div&gt;" style="whiteSpace=wrap;html=1;align=center;" parent="1" vertex="1">
          <mxGeometry x="1320" y="1510" width="160" height="130" as="geometry" />
        </mxCell>
        <mxCell id="84Wg8D0-4yVSgBaiV-lj-5" value="&lt;b&gt;&lt;font face=&quot;新宋体&quot;&gt;新闻评论举报&lt;/font&gt;&lt;/b&gt;" style="whiteSpace=wrap;html=1;align=center;fillColor=#647687;fontColor=#ffffff;strokeColor=#314354;" parent="1" vertex="1">
          <mxGeometry x="480" y="1480" width="160" height="30" as="geometry" />
        </mxCell>
        <mxCell id="84Wg8D0-4yVSgBaiV-lj-6" value="&lt;div style=&quot;border-color: var(--border-color);&quot;&gt;&lt;u style=&quot;border-color: var(--border-color);&quot;&gt;&lt;font face=&quot;新宋体&quot;&gt;新闻评论举报ID&lt;/font&gt;&lt;/u&gt;&lt;/div&gt;&lt;div style=&quot;border-color: var(--border-color);&quot;&gt;&lt;div style=&quot;border-color: var(--border-color);&quot;&gt;&lt;font face=&quot;新宋体&quot;&gt;举报者ID&lt;/font&gt;&lt;/div&gt;&lt;div style=&quot;border-color: var(--border-color);&quot;&gt;&lt;font face=&quot;新宋体&quot;&gt;被举报者ID&lt;/font&gt;&lt;/div&gt;&lt;div style=&quot;border-color: var(--border-color);&quot;&gt;&lt;font face=&quot;新宋体&quot;&gt;被举报评论所属新闻ID&lt;/font&gt;&lt;/div&gt;&lt;div style=&quot;border-color: var(--border-color);&quot;&gt;&lt;font face=&quot;新宋体&quot;&gt;被举报评论ID&lt;/font&gt;&lt;/div&gt;&lt;div style=&quot;border-color: var(--border-color);&quot;&gt;&lt;font face=&quot;新宋体&quot;&gt;举报原因&lt;/font&gt;&lt;/div&gt;&lt;div style=&quot;border-color: var(--border-color);&quot;&gt;&lt;font face=&quot;新宋体&quot;&gt;举报时间&lt;/font&gt;&lt;/div&gt;&lt;div style=&quot;border-color: var(--border-color);&quot;&gt;&lt;font face=&quot;新宋体&quot;&gt;处理状态&lt;/font&gt;&lt;/div&gt;&lt;/div&gt;" style="whiteSpace=wrap;html=1;align=center;" parent="1" vertex="1">
          <mxGeometry x="480" y="1510" width="160" height="130" as="geometry" />
        </mxCell>
        <mxCell id="84Wg8D0-4yVSgBaiV-lj-7" value="&lt;b&gt;&lt;font face=&quot;新宋体&quot;&gt;新闻标签&lt;/font&gt;&lt;/b&gt;" style="whiteSpace=wrap;html=1;align=center;fillColor=#647687;fontColor=#ffffff;strokeColor=#314354;" parent="1" vertex="1">
          <mxGeometry x="480" y="600" width="160" height="30" as="geometry" />
        </mxCell>
        <mxCell id="84Wg8D0-4yVSgBaiV-lj-8" value="&lt;div style=&quot;border-color: var(--border-color);&quot;&gt;&lt;u style=&quot;border-color: var(--border-color);&quot;&gt;&lt;font face=&quot;新宋体&quot;&gt;新闻标签ID&lt;/font&gt;&lt;/u&gt;&lt;/div&gt;&lt;div style=&quot;border-color: var(--border-color);&quot;&gt;&lt;font face=&quot;新宋体&quot;&gt;新闻标签&lt;/font&gt;&lt;/div&gt;" style="whiteSpace=wrap;html=1;align=center;" parent="1" vertex="1">
          <mxGeometry x="480" y="630" width="160" height="40" as="geometry" />
        </mxCell>
        <mxCell id="84Wg8D0-4yVSgBaiV-lj-9" value="&lt;b&gt;&lt;font face=&quot;新宋体&quot;&gt;宠物分类&lt;/font&gt;&lt;/b&gt;" style="whiteSpace=wrap;html=1;align=center;fillColor=#647687;fontColor=#ffffff;strokeColor=#314354;" parent="1" vertex="1">
          <mxGeometry x="479.97" y="100" width="160" height="30" as="geometry" />
        </mxCell>
        <mxCell id="84Wg8D0-4yVSgBaiV-lj-13" value="&lt;div style=&quot;border-color: var(--border-color);&quot;&gt;&lt;u style=&quot;border-color: var(--border-color);&quot;&gt;&lt;font face=&quot;新宋体&quot;&gt;宠物分类ID&lt;/font&gt;&lt;/u&gt;&lt;/div&gt;&lt;div style=&quot;border-color: var(--border-color);&quot;&gt;&lt;font face=&quot;新宋体&quot;&gt;宠物分类名称 (十种语言)&lt;/font&gt;&lt;/div&gt;&lt;div style=&quot;border-color: var(--border-color);&quot;&gt;&lt;font face=&quot;新宋体&quot;&gt;描述 (十种语言)&lt;/font&gt;&lt;/div&gt;&lt;div style=&quot;border-color: var(--border-color);&quot;&gt;&lt;font face=&quot;新宋体&quot;&gt;图片链接&lt;/font&gt;&lt;/div&gt;" style="whiteSpace=wrap;html=1;align=center;" parent="1" vertex="1">
          <mxGeometry x="479.97" y="130" width="160" height="70" as="geometry" />
        </mxCell>
        <mxCell id="84Wg8D0-4yVSgBaiV-lj-14" value="&lt;b&gt;&lt;font face=&quot;新宋体&quot;&gt;宠物子类&lt;/font&gt;&lt;/b&gt;" style="whiteSpace=wrap;html=1;align=center;fillColor=#647687;fontColor=#ffffff;strokeColor=#314354;" parent="1" vertex="1">
          <mxGeometry x="900" y="40" width="160" height="30" as="geometry" />
        </mxCell>
        <mxCell id="84Wg8D0-4yVSgBaiV-lj-15" value="&lt;div style=&quot;border-color: var(--border-color);&quot;&gt;&lt;u style=&quot;border-color: var(--border-color);&quot;&gt;&lt;font face=&quot;新宋体&quot;&gt;宠物子类ID&lt;/font&gt;&lt;/u&gt;&lt;/div&gt;&lt;div style=&quot;border-color: var(--border-color);&quot;&gt;&lt;span style=&quot;border-color: var(--border-color);&quot;&gt;&lt;font style=&quot;&quot; face=&quot;新宋体&quot;&gt;宠物分类ID&lt;/font&gt;&lt;/span&gt;&lt;/div&gt;&lt;div style=&quot;border-color: var(--border-color);&quot;&gt;&lt;font face=&quot;新宋体&quot;&gt;宠物子类名称 (十种语言)&lt;/font&gt;&lt;/div&gt;&lt;div style=&quot;border-color: var(--border-color);&quot;&gt;&lt;font face=&quot;新宋体&quot;&gt;描述 (十种语言)&lt;/font&gt;&lt;/div&gt;&lt;div style=&quot;border-color: var(--border-color);&quot;&gt;&lt;font face=&quot;新宋体&quot;&gt;图片链接&lt;/font&gt;&lt;/div&gt;&lt;div style=&quot;border-color: var(--border-color);&quot;&gt;&lt;font face=&quot;新宋体&quot;&gt;起源地 (十种语言)&lt;/font&gt;&lt;/div&gt;&lt;div style=&quot;border-color: var(--border-color);&quot;&gt;&lt;font face=&quot;新宋体&quot;&gt;体型 (十种语言)&lt;/font&gt;&lt;/div&gt;&lt;div style=&quot;border-color: var(--border-color);&quot;&gt;&lt;font face=&quot;新宋体&quot;&gt;毛色 (十种语言)&lt;/font&gt;&lt;/div&gt;&lt;div style=&quot;border-color: var(--border-color);&quot;&gt;&lt;font face=&quot;新宋体&quot;&gt;寿命 (十种语言)&lt;/font&gt;&lt;/div&gt;&lt;div style=&quot;border-color: var(--border-color);&quot;&gt;&lt;font face=&quot;新宋体&quot;&gt;性情 (十种语言)&lt;/font&gt;&lt;/div&gt;&lt;div style=&quot;border-color: var(--border-color);&quot;&gt;&lt;font face=&quot;新宋体&quot;&gt;饮食习惯 (十种语言)&lt;/font&gt;&lt;/div&gt;&lt;div style=&quot;border-color: var(--border-color);&quot;&gt;&lt;font face=&quot;新宋体&quot;&gt;经纬度参数&lt;/font&gt;&lt;/div&gt;" style="whiteSpace=wrap;html=1;align=center;" parent="1" vertex="1">
          <mxGeometry x="900" y="70" width="160" height="190" as="geometry" />
        </mxCell>
        <mxCell id="84Wg8D0-4yVSgBaiV-lj-16" value="&lt;b&gt;&lt;font face=&quot;新宋体&quot;&gt;宠物护理指导&lt;/font&gt;&lt;/b&gt;" style="whiteSpace=wrap;html=1;align=center;fillColor=#647687;fontColor=#ffffff;strokeColor=#314354;" parent="1" vertex="1">
          <mxGeometry x="1320" y="100" width="160" height="30" as="geometry" />
        </mxCell>
        <mxCell id="84Wg8D0-4yVSgBaiV-lj-17" value="&lt;div style=&quot;border-color: var(--border-color);&quot;&gt;&lt;u style=&quot;border-color: var(--border-color);&quot;&gt;&lt;font face=&quot;新宋体&quot;&gt;宠物护理指导ID&lt;/font&gt;&lt;/u&gt;&lt;/div&gt;&lt;div style=&quot;border-color: var(--border-color);&quot;&gt;&lt;span style=&quot;border-color: var(--border-color);&quot;&gt;&lt;font style=&quot;&quot; face=&quot;新宋体&quot;&gt;宠物子类ID&lt;/font&gt;&lt;/span&gt;&lt;/div&gt;&lt;div style=&quot;border-color: var(--border-color);&quot;&gt;&lt;font face=&quot;新宋体&quot;&gt;标题 (十种语言)&lt;/font&gt;&lt;/div&gt;&lt;div style=&quot;border-color: var(--border-color);&quot;&gt;&lt;font face=&quot;新宋体&quot;&gt;内容 (十种语言)&lt;/font&gt;&lt;/div&gt;" style="whiteSpace=wrap;html=1;align=center;" parent="1" vertex="1">
          <mxGeometry x="1320" y="130" width="160" height="70" as="geometry" />
        </mxCell>
        <mxCell id="84Wg8D0-4yVSgBaiV-lj-18" value="&lt;b&gt;&lt;font face=&quot;新宋体&quot;&gt;宠物领养&lt;/font&gt;&lt;/b&gt;" style="whiteSpace=wrap;html=1;align=center;fillColor=#647687;fontColor=#ffffff;strokeColor=#314354;" parent="1" vertex="1">
          <mxGeometry x="900" y="430" width="160" height="30" as="geometry" />
        </mxCell>
        <mxCell id="84Wg8D0-4yVSgBaiV-lj-19" value="&lt;div style=&quot;border-color: var(--border-color);&quot;&gt;&lt;u style=&quot;border-color: var(--border-color);&quot;&gt;&lt;font face=&quot;新宋体&quot;&gt;宠物领养ID&lt;/font&gt;&lt;/u&gt;&lt;/div&gt;&lt;div style=&quot;border-color: var(--border-color);&quot;&gt;&lt;font face=&quot;新宋体&quot;&gt;用户ID&lt;/font&gt;&lt;/div&gt;&lt;div style=&quot;border-color: var(--border-color);&quot;&gt;&lt;font face=&quot;新宋体&quot;&gt;宠物分类ID&lt;/font&gt;&lt;/div&gt;&lt;div style=&quot;border-color: var(--border-color);&quot;&gt;&lt;font face=&quot;新宋体&quot;&gt;宠物子类ID&lt;/font&gt;&lt;/div&gt;&lt;div style=&quot;border-color: var(--border-color);&quot;&gt;&lt;font face=&quot;新宋体&quot;&gt;宠物名称&lt;/font&gt;&lt;/div&gt;&lt;div style=&quot;border-color: var(--border-color);&quot;&gt;&lt;font face=&quot;新宋体&quot;&gt;图片链接&lt;/font&gt;&lt;/div&gt;&lt;div style=&quot;border-color: var(--border-color);&quot;&gt;&lt;font face=&quot;新宋体&quot;&gt;宠物年龄&lt;/font&gt;&lt;/div&gt;&lt;div style=&quot;border-color: var(--border-color);&quot;&gt;&lt;font face=&quot;新宋体&quot;&gt;地址&lt;/font&gt;&lt;/div&gt;&lt;div style=&quot;border-color: var(--border-color);&quot;&gt;&lt;font face=&quot;新宋体&quot;&gt;转让原因&lt;/font&gt;&lt;/div&gt;&lt;div style=&quot;border-color: var(--border-color);&quot;&gt;&lt;font face=&quot;新宋体&quot;&gt;健康情况&lt;/font&gt;&lt;/div&gt;&lt;div style=&quot;border-color: var(--border-color);&quot;&gt;&lt;font face=&quot;新宋体&quot;&gt;最近一次健康检查日期&lt;/font&gt;&lt;/div&gt;&lt;div style=&quot;border-color: var(--border-color);&quot;&gt;&lt;font face=&quot;新宋体&quot;&gt;疫苗接种情况&lt;/font&gt;&lt;/div&gt;&lt;div style=&quot;border-color: var(--border-color);&quot;&gt;&lt;font face=&quot;新宋体&quot;&gt;特殊护理需求&lt;/font&gt;&lt;/div&gt;&lt;div style=&quot;border-color: var(--border-color);&quot;&gt;&lt;font face=&quot;新宋体&quot;&gt;特殊饮食需求&lt;/font&gt;&lt;/div&gt;&lt;div style=&quot;border-color: var(--border-color);&quot;&gt;&lt;font face=&quot;新宋体&quot;&gt;性格行为特征&lt;/font&gt;&lt;/div&gt;&lt;div style=&quot;border-color: var(--border-color);&quot;&gt;&lt;font face=&quot;新宋体&quot;&gt;是否已绝育&lt;/font&gt;&lt;/div&gt;&lt;div style=&quot;border-color: var(--border-color);&quot;&gt;&lt;font face=&quot;新宋体&quot;&gt;备注&lt;/font&gt;&lt;/div&gt;&lt;div style=&quot;border-color: var(--border-color);&quot;&gt;&lt;font face=&quot;新宋体&quot;&gt;领养状态&lt;/font&gt;&lt;/div&gt;&lt;div style=&quot;border-color: var(--border-color);&quot;&gt;&lt;font face=&quot;新宋体&quot;&gt;性别&lt;/font&gt;&lt;/div&gt;&lt;div style=&quot;border-color: var(--border-color);&quot;&gt;&lt;font face=&quot;新宋体&quot;&gt;附件链接&lt;/font&gt;&lt;/div&gt;" style="whiteSpace=wrap;html=1;align=center;" parent="1" vertex="1">
          <mxGeometry x="900" y="460" width="160" height="290" as="geometry" />
        </mxCell>
        <mxCell id="84Wg8D0-4yVSgBaiV-lj-21" value="&lt;font face=&quot;新宋体&quot;&gt;留言&lt;/font&gt;" style="shape=rhombus;perimeter=rhombusPerimeter;whiteSpace=wrap;html=1;align=center;" parent="1" vertex="1">
          <mxGeometry x="1340" y="1840" width="120" height="60" as="geometry" />
        </mxCell>
        <mxCell id="84Wg8D0-4yVSgBaiV-lj-22" value="&lt;font face=&quot;新宋体&quot;&gt;关注&lt;/font&gt;" style="shape=rhombus;perimeter=rhombusPerimeter;whiteSpace=wrap;html=1;align=center;" parent="1" vertex="1">
          <mxGeometry x="500" y="1840" width="120" height="60" as="geometry" />
        </mxCell>
        <mxCell id="84Wg8D0-4yVSgBaiV-lj-23" value="&lt;font face=&quot;新宋体&quot;&gt;打卡&lt;/font&gt;" style="shape=rhombus;perimeter=rhombusPerimeter;whiteSpace=wrap;html=1;align=center;" parent="1" vertex="1">
          <mxGeometry x="1060" y="1680" width="120" height="60" as="geometry" />
        </mxCell>
        <mxCell id="pFvbjGyhtthrjW876RB9-10" style="edgeStyle=orthogonalEdgeStyle;rounded=0;orthogonalLoop=1;jettySize=auto;html=1;exitX=0.5;exitY=1;exitDx=0;exitDy=0;entryX=0.5;entryY=0;entryDx=0;entryDy=0;" parent="1" source="QV8q_15X7JUbRMDC0rht-3" target="FcLobYDYsunlRHYjwb2t-43" edge="1">
          <mxGeometry relative="1" as="geometry" />
        </mxCell>
        <mxCell id="QV8q_15X7JUbRMDC0rht-3" value="&lt;font face=&quot;新宋体&quot;&gt;拥有&lt;/font&gt;" style="shape=rhombus;perimeter=rhombusPerimeter;whiteSpace=wrap;html=1;align=center;" parent="1" vertex="1">
          <mxGeometry x="780.03" y="1680" width="120" height="60" as="geometry" />
        </mxCell>
        <mxCell id="QV8q_15X7JUbRMDC0rht-4" value="&lt;div style=&quot;border-color: var(--border-color);&quot;&gt;&lt;font face=&quot;新宋体&quot;&gt;&lt;u&gt;用户ID&lt;/u&gt;&lt;/font&gt;&lt;/div&gt;&lt;div style=&quot;border-color: var(--border-color);&quot;&gt;&lt;span style=&quot;font-family: 新宋体; background-color: initial;&quot;&gt;是否公开手机号码&lt;/span&gt;&lt;br&gt;&lt;/div&gt;&lt;div style=&quot;border-color: var(--border-color);&quot;&gt;&lt;font style=&quot;border-color: var(--border-color);&quot; face=&quot;新宋体&quot;&gt;是否公开注册日期&lt;/font&gt;&lt;/div&gt;&lt;div style=&quot;border-color: var(--border-color);&quot;&gt;&lt;font style=&quot;border-color: var(--border-color);&quot; face=&quot;新宋体&quot;&gt;是否公开个人简介&lt;/font&gt;&lt;/div&gt;&lt;div style=&quot;border-color: var(--border-color);&quot;&gt;&lt;font style=&quot;border-color: var(--border-color);&quot; face=&quot;新宋体&quot;&gt;是否公开性别&lt;/font&gt;&lt;/div&gt;&lt;div style=&quot;border-color: var(--border-color);&quot;&gt;&lt;font style=&quot;border-color: var(--border-color);&quot; face=&quot;新宋体&quot;&gt;是否公开出生日期&lt;/font&gt;&lt;/div&gt;&lt;div style=&quot;border-color: var(--border-color);&quot;&gt;&lt;font style=&quot;border-color: var(--border-color);&quot; face=&quot;新宋体&quot;&gt;是否公开等级&lt;/font&gt;&lt;/div&gt;&lt;div style=&quot;border-color: var(--border-color);&quot;&gt;&lt;font style=&quot;border-color: var(--border-color);&quot; face=&quot;新宋体&quot;&gt;是否&lt;/font&gt;&lt;font style=&quot;border-color: var(--border-color);&quot; face=&quot;新宋体&quot;&gt;公开关注数&lt;/font&gt;&lt;/div&gt;&lt;div style=&quot;border-color: var(--border-color);&quot;&gt;&lt;span style=&quot;border-color: var(--border-color); font-family: 新宋体; background-color: initial;&quot;&gt;是否公开被关注数&lt;/span&gt;&lt;/div&gt;&lt;div style=&quot;border-color: var(--border-color);&quot;&gt;&lt;span style=&quot;border-color: var(--border-color); font-family: 新宋体; background-color: initial;&quot;&gt;是否公开收藏数&lt;/span&gt;&lt;/div&gt;&lt;div style=&quot;border-color: var(--border-color);&quot;&gt;&lt;span style=&quot;border-color: var(--border-color); font-family: 新宋体; background-color: initial;&quot;&gt;是否公开被收藏数&lt;/span&gt;&lt;/div&gt;&lt;div style=&quot;border-color: var(--border-color);&quot;&gt;&lt;span style=&quot;border-color: var(--border-color); font-family: 新宋体; background-color: initial;&quot;&gt;是否公开点赞数&lt;/span&gt;&lt;/div&gt;&lt;div style=&quot;border-color: var(--border-color);&quot;&gt;&lt;font style=&quot;border-color: var(--border-color);&quot; face=&quot;新宋体&quot;&gt;是否公开被点赞数&lt;/font&gt;&lt;/div&gt;&lt;div style=&quot;border-color: var(--border-color);&quot;&gt;&lt;font style=&quot;border-color: var(--border-color);&quot; face=&quot;新宋体&quot;&gt;是否公开留言数&lt;/font&gt;&lt;/div&gt;&lt;div style=&quot;border-color: var(--border-color);&quot;&gt;&lt;font style=&quot;border-color: var(--border-color);&quot; face=&quot;新宋体&quot;&gt;是否允许他人关注&lt;/font&gt;&lt;/div&gt;&lt;div style=&quot;border-color: var(--border-color);&quot;&gt;&lt;font style=&quot;border-color: var(--border-color);&quot; face=&quot;新宋体&quot;&gt;是否接受管理员通知&lt;/font&gt;&lt;/div&gt;&lt;div style=&quot;border-color: var(--border-color);&quot;&gt;&lt;font style=&quot;border-color: var(--border-color);&quot; face=&quot;新宋体&quot;&gt;是否接受&lt;/font&gt;&lt;span style=&quot;border-color: var(--border-color); font-family: 新宋体; background-color: initial;&quot;&gt;用户通知&lt;/span&gt;&lt;/div&gt;" style="whiteSpace=wrap;html=1;align=center;" parent="1" vertex="1">
          <mxGeometry x="760" y="1830" width="160" height="260" as="geometry" />
        </mxCell>
        <mxCell id="QV8q_15X7JUbRMDC0rht-12" value="" style="endArrow=none;dashed=1;html=1;rounded=0;entryX=0.5;entryY=1;entryDx=0;entryDy=0;exitX=0.5;exitY=0;exitDx=0;exitDy=0;" parent="1" source="FcLobYDYsunlRHYjwb2t-49" target="84Wg8D0-4yVSgBaiV-lj-22" edge="1">
          <mxGeometry width="50" height="50" relative="1" as="geometry">
            <mxPoint x="629.97" y="1920" as="sourcePoint" />
            <mxPoint x="679.97" y="1870" as="targetPoint" />
          </mxGeometry>
        </mxCell>
        <mxCell id="QV8q_15X7JUbRMDC0rht-16" value="" style="endArrow=none;html=1;rounded=0;exitX=0.5;exitY=0;exitDx=0;exitDy=0;entryX=0.5;entryY=1;entryDx=0;entryDy=0;" parent="1" source="FcLobYDYsunlRHYjwb2t-50" target="84Wg8D0-4yVSgBaiV-lj-21" edge="1">
          <mxGeometry width="50" height="50" relative="1" as="geometry">
            <mxPoint x="1263.03" y="1810" as="sourcePoint" />
            <mxPoint x="1430" y="1880" as="targetPoint" />
          </mxGeometry>
        </mxCell>
        <mxCell id="pFvbjGyhtthrjW876RB9-27" style="edgeStyle=orthogonalEdgeStyle;rounded=0;orthogonalLoop=1;jettySize=auto;html=1;exitX=0.5;exitY=0;exitDx=0;exitDy=0;entryX=0.5;entryY=1;entryDx=0;entryDy=0;" parent="1" source="QV8q_15X7JUbRMDC0rht-23" target="FcLobYDYsunlRHYjwb2t-53" edge="1">
          <mxGeometry relative="1" as="geometry" />
        </mxCell>
        <mxCell id="QV8q_15X7JUbRMDC0rht-23" value="&lt;font face=&quot;新宋体&quot;&gt;拥有&lt;/font&gt;" style="shape=rhombus;perimeter=rhombusPerimeter;whiteSpace=wrap;html=1;align=center;" parent="1" vertex="1">
          <mxGeometry x="1340" y="1090" width="120" height="60" as="geometry" />
        </mxCell>
        <mxCell id="QV8q_15X7JUbRMDC0rht-27" style="edgeStyle=orthogonalEdgeStyle;rounded=0;orthogonalLoop=1;jettySize=auto;html=1;exitX=1;exitY=0.75;exitDx=0;exitDy=0;entryX=0;entryY=0.75;entryDx=0;entryDy=0;" parent="1" source="FcLobYDYsunlRHYjwb2t-55" target="FcLobYDYsunlRHYjwb2t-55" edge="1">
          <mxGeometry relative="1" as="geometry">
            <mxPoint x="1310" y="1320" as="targetPoint" />
            <Array as="points">
              <mxPoint x="1510" y="1310" />
              <mxPoint x="1510" y="1360" />
              <mxPoint x="1290" y="1360" />
              <mxPoint x="1290" y="1310" />
            </Array>
          </mxGeometry>
        </mxCell>
        <mxCell id="QV8q_15X7JUbRMDC0rht-28" value="&lt;font face=&quot;新宋体&quot;&gt;点赞&lt;/font&gt;" style="shape=rhombus;perimeter=rhombusPerimeter;whiteSpace=wrap;html=1;align=center;" parent="1" vertex="1">
          <mxGeometry x="1640" y="770" width="120" height="60" as="geometry" />
        </mxCell>
        <mxCell id="QV8q_15X7JUbRMDC0rht-33" value="&lt;div style=&quot;border-color: var(--border-color);&quot;&gt;&lt;span style=&quot;font-family: 新宋体; background-color: initial;&quot;&gt;点赞时间&lt;/span&gt;&lt;br&gt;&lt;/div&gt;" style="whiteSpace=wrap;html=1;align=center;" parent="1" vertex="1">
          <mxGeometry x="1640" y="850" width="120" height="30" as="geometry" />
        </mxCell>
        <mxCell id="QV8q_15X7JUbRMDC0rht-34" value="" style="endArrow=none;dashed=1;html=1;rounded=0;entryX=0.5;entryY=1;entryDx=0;entryDy=0;exitX=0.5;exitY=0;exitDx=0;exitDy=0;" parent="1" source="QV8q_15X7JUbRMDC0rht-33" target="QV8q_15X7JUbRMDC0rht-28" edge="1">
          <mxGeometry width="50" height="50" relative="1" as="geometry">
            <mxPoint x="1560" y="880" as="sourcePoint" />
            <mxPoint x="1700" y="840" as="targetPoint" />
          </mxGeometry>
        </mxCell>
        <mxCell id="pFvbjGyhtthrjW876RB9-21" style="edgeStyle=orthogonalEdgeStyle;rounded=0;orthogonalLoop=1;jettySize=auto;html=1;exitX=0.5;exitY=0;exitDx=0;exitDy=0;entryX=0.5;entryY=1;entryDx=0;entryDy=0;" parent="1" source="QV8q_15X7JUbRMDC0rht-39" target="FcLobYDYsunlRHYjwb2t-60" edge="1">
          <mxGeometry relative="1" as="geometry" />
        </mxCell>
        <mxCell id="QV8q_15X7JUbRMDC0rht-39" value="&lt;font face=&quot;新宋体&quot;&gt;拥有&lt;/font&gt;" style="shape=rhombus;perimeter=rhombusPerimeter;whiteSpace=wrap;html=1;align=center;" parent="1" vertex="1">
          <mxGeometry x="499.97" y="1090" width="120" height="60" as="geometry" />
        </mxCell>
        <mxCell id="QV8q_15X7JUbRMDC0rht-72" value="" style="endArrow=none;html=1;rounded=0;exitX=0;exitY=0;exitDx=0;exitDy=0;entryX=0.063;entryY=1;entryDx=0;entryDy=0;entryPerimeter=0;" parent="1" source="84Wg8D0-4yVSgBaiV-lj-22" target="FcLobYDYsunlRHYjwb2t-40" edge="1">
          <mxGeometry width="50" height="50" relative="1" as="geometry">
            <mxPoint x="820" y="1420" as="sourcePoint" />
            <mxPoint x="910" y="1330" as="targetPoint" />
            <Array as="points" />
          </mxGeometry>
        </mxCell>
        <mxCell id="QV8q_15X7JUbRMDC0rht-77" value="" style="endArrow=none;html=1;rounded=0;exitX=1;exitY=0;exitDx=0;exitDy=0;entryX=0.188;entryY=1;entryDx=0;entryDy=0;entryPerimeter=0;" parent="1" source="84Wg8D0-4yVSgBaiV-lj-22" target="FcLobYDYsunlRHYjwb2t-40" edge="1">
          <mxGeometry width="50" height="50" relative="1" as="geometry">
            <mxPoint x="820" y="1465" as="sourcePoint" />
            <mxPoint x="930" y="1330" as="targetPoint" />
            <Array as="points" />
          </mxGeometry>
        </mxCell>
        <mxCell id="QV8q_15X7JUbRMDC0rht-78" value="" style="endArrow=none;html=1;rounded=0;exitX=0;exitY=0;exitDx=0;exitDy=0;entryX=0.813;entryY=1;entryDx=0;entryDy=0;entryPerimeter=0;" parent="1" source="84Wg8D0-4yVSgBaiV-lj-21" target="FcLobYDYsunlRHYjwb2t-40" edge="1">
          <mxGeometry width="50" height="50" relative="1" as="geometry">
            <mxPoint x="880" y="1465" as="sourcePoint" />
            <mxPoint x="1020" y="1330" as="targetPoint" />
            <Array as="points" />
          </mxGeometry>
        </mxCell>
        <mxCell id="QV8q_15X7JUbRMDC0rht-79" value="" style="endArrow=none;html=1;rounded=0;exitX=1;exitY=0;exitDx=0;exitDy=0;entryX=0.938;entryY=1;entryDx=0;entryDy=0;entryPerimeter=0;" parent="1" source="84Wg8D0-4yVSgBaiV-lj-21" target="FcLobYDYsunlRHYjwb2t-40" edge="1">
          <mxGeometry width="50" height="50" relative="1" as="geometry">
            <mxPoint x="890" y="1475" as="sourcePoint" />
            <mxPoint x="1040" y="1330" as="targetPoint" />
            <Array as="points" />
          </mxGeometry>
        </mxCell>
        <mxCell id="QV8q_15X7JUbRMDC0rht-82" value="&lt;font face=&quot;新宋体&quot;&gt;点踩&lt;/font&gt;" style="shape=rhombus;perimeter=rhombusPerimeter;whiteSpace=wrap;html=1;align=center;" parent="1" vertex="1">
          <mxGeometry x="1640" y="910" width="120" height="60" as="geometry" />
        </mxCell>
        <mxCell id="QV8q_15X7JUbRMDC0rht-84" value="&lt;div style=&quot;border-color: var(--border-color);&quot;&gt;&lt;span style=&quot;font-family: 新宋体; background-color: initial;&quot;&gt;点踩时间&lt;/span&gt;&lt;br&gt;&lt;/div&gt;" style="whiteSpace=wrap;html=1;align=center;" parent="1" vertex="1">
          <mxGeometry x="1640" y="990" width="120" height="30" as="geometry" />
        </mxCell>
        <mxCell id="QV8q_15X7JUbRMDC0rht-85" value="" style="endArrow=none;dashed=1;html=1;rounded=0;entryX=0.5;entryY=1;entryDx=0;entryDy=0;exitX=0.5;exitY=0;exitDx=0;exitDy=0;" parent="1" source="QV8q_15X7JUbRMDC0rht-84" target="QV8q_15X7JUbRMDC0rht-82" edge="1">
          <mxGeometry width="50" height="50" relative="1" as="geometry">
            <mxPoint x="1560" y="1020" as="sourcePoint" />
            <mxPoint x="1700" y="980" as="targetPoint" />
          </mxGeometry>
        </mxCell>
        <mxCell id="QV8q_15X7JUbRMDC0rht-94" value="&lt;font face=&quot;新宋体&quot;&gt;收藏&lt;/font&gt;" style="shape=rhombus;perimeter=rhombusPerimeter;whiteSpace=wrap;html=1;align=center;" parent="1" vertex="1">
          <mxGeometry x="1640" y="1050" width="120" height="60" as="geometry" />
        </mxCell>
        <mxCell id="QV8q_15X7JUbRMDC0rht-96" value="&lt;div style=&quot;border-color: var(--border-color);&quot;&gt;&lt;span style=&quot;font-family: 新宋体; background-color: initial;&quot;&gt;收藏时间&lt;/span&gt;&lt;br&gt;&lt;/div&gt;" style="whiteSpace=wrap;html=1;align=center;" parent="1" vertex="1">
          <mxGeometry x="1640" y="1130" width="120" height="30" as="geometry" />
        </mxCell>
        <mxCell id="QV8q_15X7JUbRMDC0rht-97" value="" style="endArrow=none;dashed=1;html=1;rounded=0;entryX=0.5;entryY=1;entryDx=0;entryDy=0;exitX=0.5;exitY=0;exitDx=0;exitDy=0;" parent="1" source="QV8q_15X7JUbRMDC0rht-96" target="QV8q_15X7JUbRMDC0rht-94" edge="1">
          <mxGeometry width="50" height="50" relative="1" as="geometry">
            <mxPoint x="1560" y="1160" as="sourcePoint" />
            <mxPoint x="1700" y="1120" as="targetPoint" />
          </mxGeometry>
        </mxCell>
        <mxCell id="QV8q_15X7JUbRMDC0rht-98" value="&lt;font face=&quot;新宋体&quot;&gt;点赞&lt;/font&gt;" style="shape=rhombus;perimeter=rhombusPerimeter;whiteSpace=wrap;html=1;align=center;" parent="1" vertex="1">
          <mxGeometry x="1640" y="1190" width="120" height="60" as="geometry" />
        </mxCell>
        <mxCell id="QV8q_15X7JUbRMDC0rht-100" value="&lt;div style=&quot;border-color: var(--border-color);&quot;&gt;&lt;span style=&quot;font-family: 新宋体; background-color: initial;&quot;&gt;点赞时间&lt;/span&gt;&lt;br&gt;&lt;/div&gt;" style="whiteSpace=wrap;html=1;align=center;" parent="1" vertex="1">
          <mxGeometry x="1640" y="1270" width="120" height="30" as="geometry" />
        </mxCell>
        <mxCell id="QV8q_15X7JUbRMDC0rht-101" value="" style="endArrow=none;dashed=1;html=1;rounded=0;entryX=0.5;entryY=1;entryDx=0;entryDy=0;exitX=0.5;exitY=0;exitDx=0;exitDy=0;" parent="1" source="QV8q_15X7JUbRMDC0rht-100" target="QV8q_15X7JUbRMDC0rht-98" edge="1">
          <mxGeometry width="50" height="50" relative="1" as="geometry">
            <mxPoint x="1560" y="1300" as="sourcePoint" />
            <mxPoint x="1700" y="1260" as="targetPoint" />
          </mxGeometry>
        </mxCell>
        <mxCell id="QV8q_15X7JUbRMDC0rht-102" value="&lt;font face=&quot;新宋体&quot;&gt;点踩&lt;/font&gt;" style="shape=rhombus;perimeter=rhombusPerimeter;whiteSpace=wrap;html=1;align=center;" parent="1" vertex="1">
          <mxGeometry x="1640" y="1330" width="120" height="60" as="geometry" />
        </mxCell>
        <mxCell id="QV8q_15X7JUbRMDC0rht-104" value="&lt;div style=&quot;border-color: var(--border-color);&quot;&gt;&lt;span style=&quot;font-family: 新宋体; background-color: initial;&quot;&gt;点踩时间&lt;/span&gt;&lt;br&gt;&lt;/div&gt;" style="whiteSpace=wrap;html=1;align=center;" parent="1" vertex="1">
          <mxGeometry x="1640" y="1410" width="120" height="30" as="geometry" />
        </mxCell>
        <mxCell id="QV8q_15X7JUbRMDC0rht-105" value="" style="endArrow=none;dashed=1;html=1;rounded=0;entryX=0.5;entryY=1;entryDx=0;entryDy=0;exitX=0.5;exitY=0;exitDx=0;exitDy=0;" parent="1" source="QV8q_15X7JUbRMDC0rht-104" target="QV8q_15X7JUbRMDC0rht-102" edge="1">
          <mxGeometry width="50" height="50" relative="1" as="geometry">
            <mxPoint x="1560" y="1440" as="sourcePoint" />
            <mxPoint x="1700" y="1400" as="targetPoint" />
          </mxGeometry>
        </mxCell>
        <mxCell id="pFvbjGyhtthrjW876RB9-25" style="edgeStyle=orthogonalEdgeStyle;rounded=0;orthogonalLoop=1;jettySize=auto;html=1;exitX=0.5;exitY=1;exitDx=0;exitDy=0;entryX=0.5;entryY=0;entryDx=0;entryDy=0;" parent="1" source="QV8q_15X7JUbRMDC0rht-108" target="FcLobYDYsunlRHYjwb2t-52" edge="1">
          <mxGeometry relative="1" as="geometry" />
        </mxCell>
        <mxCell id="QV8q_15X7JUbRMDC0rht-108" value="&lt;font face=&quot;新宋体&quot;&gt;拥有&lt;br&gt;&lt;/font&gt;" style="shape=rhombus;perimeter=rhombusPerimeter;whiteSpace=wrap;html=1;align=center;" parent="1" vertex="1">
          <mxGeometry x="1340" y="740" width="120" height="60" as="geometry" />
        </mxCell>
        <mxCell id="pFvbjGyhtthrjW876RB9-29" style="edgeStyle=orthogonalEdgeStyle;rounded=0;orthogonalLoop=1;jettySize=auto;html=1;exitX=0.5;exitY=0;exitDx=0;exitDy=0;entryX=0.5;entryY=1;entryDx=0;entryDy=0;" parent="1" source="QV8q_15X7JUbRMDC0rht-116" target="FcLobYDYsunlRHYjwb2t-55" edge="1">
          <mxGeometry relative="1" as="geometry" />
        </mxCell>
        <mxCell id="QV8q_15X7JUbRMDC0rht-116" value="&lt;font face=&quot;新宋体&quot;&gt;拥有&lt;br&gt;&lt;/font&gt;" style="shape=rhombus;perimeter=rhombusPerimeter;whiteSpace=wrap;html=1;align=center;" parent="1" vertex="1">
          <mxGeometry x="1340" y="1380" width="120" height="60" as="geometry" />
        </mxCell>
        <mxCell id="QV8q_15X7JUbRMDC0rht-123" value="&lt;font face=&quot;新宋体&quot;&gt;拥有&lt;br&gt;&lt;/font&gt;" style="shape=rhombus;perimeter=rhombusPerimeter;whiteSpace=wrap;html=1;align=center;" parent="1" vertex="1">
          <mxGeometry x="1520" y="1545" width="120" height="60" as="geometry" />
        </mxCell>
        <mxCell id="pFvbjGyhtthrjW876RB9-23" style="edgeStyle=orthogonalEdgeStyle;rounded=0;orthogonalLoop=1;jettySize=auto;html=1;exitX=0.5;exitY=0;exitDx=0;exitDy=0;entryX=0.5;entryY=1;entryDx=0;entryDy=0;" parent="1" source="QV8q_15X7JUbRMDC0rht-130" target="FcLobYDYsunlRHYjwb2t-62" edge="1">
          <mxGeometry relative="1" as="geometry" />
        </mxCell>
        <mxCell id="QV8q_15X7JUbRMDC0rht-130" value="&lt;font face=&quot;新宋体&quot;&gt;拥有&lt;br&gt;&lt;/font&gt;" style="shape=rhombus;perimeter=rhombusPerimeter;whiteSpace=wrap;html=1;align=center;" parent="1" vertex="1">
          <mxGeometry x="500" y="1380" width="120" height="60" as="geometry" />
        </mxCell>
        <mxCell id="QV8q_15X7JUbRMDC0rht-133" value="&lt;font face=&quot;新宋体&quot;&gt;拥有&lt;br&gt;&lt;/font&gt;" style="shape=rhombus;perimeter=rhombusPerimeter;whiteSpace=wrap;html=1;align=center;" parent="1" vertex="1">
          <mxGeometry x="320" y="1545" width="120" height="60" as="geometry" />
        </mxCell>
        <mxCell id="QV8q_15X7JUbRMDC0rht-141" value="&lt;font face=&quot;新宋体&quot;&gt;拥有&lt;/font&gt;" style="shape=rhombus;perimeter=rhombusPerimeter;whiteSpace=wrap;html=1;align=center;" parent="1" vertex="1">
          <mxGeometry x="499.97" y="710" width="120" height="60" as="geometry" />
        </mxCell>
        <mxCell id="QV8q_15X7JUbRMDC0rht-142" value="" style="endArrow=none;html=1;rounded=0;entryX=0.5;entryY=1;entryDx=0;entryDy=0;exitX=0.5;exitY=0;exitDx=0;exitDy=0;" parent="1" source="QV8q_15X7JUbRMDC0rht-141" target="84Wg8D0-4yVSgBaiV-lj-8" edge="1">
          <mxGeometry width="50" height="50" relative="1" as="geometry">
            <mxPoint x="440" y="750" as="sourcePoint" />
            <mxPoint x="490" y="700" as="targetPoint" />
          </mxGeometry>
        </mxCell>
        <mxCell id="QV8q_15X7JUbRMDC0rht-159" value="&lt;font face=&quot;新宋体&quot;&gt;点赞&lt;/font&gt;" style="shape=rhombus;perimeter=rhombusPerimeter;whiteSpace=wrap;html=1;align=center;" parent="1" vertex="1">
          <mxGeometry x="200" y="770" width="120" height="60" as="geometry" />
        </mxCell>
        <mxCell id="QV8q_15X7JUbRMDC0rht-160" value="&lt;div style=&quot;border-color: var(--border-color);&quot;&gt;&lt;span style=&quot;font-family: 新宋体; background-color: initial;&quot;&gt;点赞时间&lt;/span&gt;&lt;br&gt;&lt;/div&gt;" style="whiteSpace=wrap;html=1;align=center;" parent="1" vertex="1">
          <mxGeometry x="200" y="850" width="120" height="30" as="geometry" />
        </mxCell>
        <mxCell id="QV8q_15X7JUbRMDC0rht-161" value="" style="endArrow=none;dashed=1;html=1;rounded=0;entryX=0.5;entryY=1;entryDx=0;entryDy=0;exitX=0.5;exitY=0;exitDx=0;exitDy=0;" parent="1" source="QV8q_15X7JUbRMDC0rht-160" target="QV8q_15X7JUbRMDC0rht-159" edge="1">
          <mxGeometry width="50" height="50" relative="1" as="geometry">
            <mxPoint x="120" y="880" as="sourcePoint" />
            <mxPoint x="260" y="840" as="targetPoint" />
          </mxGeometry>
        </mxCell>
        <mxCell id="QV8q_15X7JUbRMDC0rht-162" value="&lt;font face=&quot;新宋体&quot;&gt;点踩&lt;/font&gt;" style="shape=rhombus;perimeter=rhombusPerimeter;whiteSpace=wrap;html=1;align=center;" parent="1" vertex="1">
          <mxGeometry x="200" y="910" width="120" height="60" as="geometry" />
        </mxCell>
        <mxCell id="QV8q_15X7JUbRMDC0rht-163" value="&lt;div style=&quot;border-color: var(--border-color);&quot;&gt;&lt;span style=&quot;font-family: 新宋体; background-color: initial;&quot;&gt;点踩时间&lt;/span&gt;&lt;br&gt;&lt;/div&gt;" style="whiteSpace=wrap;html=1;align=center;" parent="1" vertex="1">
          <mxGeometry x="200" y="990" width="120" height="30" as="geometry" />
        </mxCell>
        <mxCell id="QV8q_15X7JUbRMDC0rht-164" value="" style="endArrow=none;dashed=1;html=1;rounded=0;entryX=0.5;entryY=1;entryDx=0;entryDy=0;exitX=0.5;exitY=0;exitDx=0;exitDy=0;" parent="1" source="QV8q_15X7JUbRMDC0rht-163" target="QV8q_15X7JUbRMDC0rht-162" edge="1">
          <mxGeometry width="50" height="50" relative="1" as="geometry">
            <mxPoint x="120" y="1020" as="sourcePoint" />
            <mxPoint x="260" y="980" as="targetPoint" />
          </mxGeometry>
        </mxCell>
        <mxCell id="QV8q_15X7JUbRMDC0rht-165" value="&lt;font face=&quot;新宋体&quot;&gt;收藏&lt;/font&gt;" style="shape=rhombus;perimeter=rhombusPerimeter;whiteSpace=wrap;html=1;align=center;" parent="1" vertex="1">
          <mxGeometry x="200" y="1050" width="120" height="60" as="geometry" />
        </mxCell>
        <mxCell id="QV8q_15X7JUbRMDC0rht-166" value="&lt;div style=&quot;border-color: var(--border-color);&quot;&gt;&lt;span style=&quot;font-family: 新宋体; background-color: initial;&quot;&gt;收藏时间&lt;/span&gt;&lt;br&gt;&lt;/div&gt;" style="whiteSpace=wrap;html=1;align=center;" parent="1" vertex="1">
          <mxGeometry x="200" y="1130" width="120" height="30" as="geometry" />
        </mxCell>
        <mxCell id="QV8q_15X7JUbRMDC0rht-167" value="" style="endArrow=none;dashed=1;html=1;rounded=0;entryX=0.5;entryY=1;entryDx=0;entryDy=0;exitX=0.5;exitY=0;exitDx=0;exitDy=0;" parent="1" source="QV8q_15X7JUbRMDC0rht-166" target="QV8q_15X7JUbRMDC0rht-165" edge="1">
          <mxGeometry width="50" height="50" relative="1" as="geometry">
            <mxPoint x="120" y="1160" as="sourcePoint" />
            <mxPoint x="260" y="1120" as="targetPoint" />
          </mxGeometry>
        </mxCell>
        <mxCell id="QV8q_15X7JUbRMDC0rht-168" value="&lt;font face=&quot;新宋体&quot;&gt;点赞&lt;/font&gt;" style="shape=rhombus;perimeter=rhombusPerimeter;whiteSpace=wrap;html=1;align=center;" parent="1" vertex="1">
          <mxGeometry x="200" y="1190" width="120" height="60" as="geometry" />
        </mxCell>
        <mxCell id="QV8q_15X7JUbRMDC0rht-169" value="&lt;div style=&quot;border-color: var(--border-color);&quot;&gt;&lt;span style=&quot;font-family: 新宋体; background-color: initial;&quot;&gt;点赞时间&lt;/span&gt;&lt;br&gt;&lt;/div&gt;" style="whiteSpace=wrap;html=1;align=center;" parent="1" vertex="1">
          <mxGeometry x="200" y="1270" width="120" height="30" as="geometry" />
        </mxCell>
        <mxCell id="QV8q_15X7JUbRMDC0rht-170" value="" style="endArrow=none;dashed=1;html=1;rounded=0;entryX=0.5;entryY=1;entryDx=0;entryDy=0;exitX=0.5;exitY=0;exitDx=0;exitDy=0;" parent="1" source="QV8q_15X7JUbRMDC0rht-169" target="QV8q_15X7JUbRMDC0rht-168" edge="1">
          <mxGeometry width="50" height="50" relative="1" as="geometry">
            <mxPoint x="120" y="1300" as="sourcePoint" />
            <mxPoint x="260" y="1260" as="targetPoint" />
          </mxGeometry>
        </mxCell>
        <mxCell id="QV8q_15X7JUbRMDC0rht-171" value="&lt;font face=&quot;新宋体&quot;&gt;点踩&lt;/font&gt;" style="shape=rhombus;perimeter=rhombusPerimeter;whiteSpace=wrap;html=1;align=center;" parent="1" vertex="1">
          <mxGeometry x="200" y="1330" width="120" height="60" as="geometry" />
        </mxCell>
        <mxCell id="QV8q_15X7JUbRMDC0rht-172" value="&lt;div style=&quot;border-color: var(--border-color);&quot;&gt;&lt;span style=&quot;font-family: 新宋体; background-color: initial;&quot;&gt;点踩时间&lt;/span&gt;&lt;br&gt;&lt;/div&gt;" style="whiteSpace=wrap;html=1;align=center;" parent="1" vertex="1">
          <mxGeometry x="200" y="1410" width="120" height="30" as="geometry" />
        </mxCell>
        <mxCell id="QV8q_15X7JUbRMDC0rht-173" value="" style="endArrow=none;dashed=1;html=1;rounded=0;entryX=0.5;entryY=1;entryDx=0;entryDy=0;exitX=0.5;exitY=0;exitDx=0;exitDy=0;" parent="1" source="QV8q_15X7JUbRMDC0rht-172" target="QV8q_15X7JUbRMDC0rht-171" edge="1">
          <mxGeometry width="50" height="50" relative="1" as="geometry">
            <mxPoint x="120" y="1440" as="sourcePoint" />
            <mxPoint x="260" y="1400" as="targetPoint" />
          </mxGeometry>
        </mxCell>
        <mxCell id="pFvbjGyhtthrjW876RB9-5" style="edgeStyle=orthogonalEdgeStyle;rounded=0;orthogonalLoop=1;jettySize=auto;html=1;exitX=0;exitY=0.5;exitDx=0;exitDy=0;entryX=1;entryY=0.5;entryDx=0;entryDy=0;" parent="1" source="QV8q_15X7JUbRMDC0rht-179" target="84Wg8D0-4yVSgBaiV-lj-13" edge="1">
          <mxGeometry relative="1" as="geometry" />
        </mxCell>
        <mxCell id="QV8q_15X7JUbRMDC0rht-179" value="&lt;font face=&quot;新宋体&quot;&gt;包含&lt;/font&gt;" style="shape=rhombus;perimeter=rhombusPerimeter;whiteSpace=wrap;html=1;align=center;" parent="1" vertex="1">
          <mxGeometry x="710" y="135" width="120" height="60" as="geometry" />
        </mxCell>
        <mxCell id="pFvbjGyhtthrjW876RB9-8" style="edgeStyle=orthogonalEdgeStyle;rounded=0;orthogonalLoop=1;jettySize=auto;html=1;exitX=0;exitY=0.5;exitDx=0;exitDy=0;entryX=1;entryY=0.5;entryDx=0;entryDy=0;" parent="1" source="QV8q_15X7JUbRMDC0rht-183" target="84Wg8D0-4yVSgBaiV-lj-15" edge="1">
          <mxGeometry relative="1" as="geometry" />
        </mxCell>
        <mxCell id="QV8q_15X7JUbRMDC0rht-183" value="&lt;font face=&quot;新宋体&quot;&gt;拥有&lt;/font&gt;" style="shape=rhombus;perimeter=rhombusPerimeter;whiteSpace=wrap;html=1;align=center;" parent="1" vertex="1">
          <mxGeometry x="1130" y="135" width="120" height="60" as="geometry" />
        </mxCell>
        <mxCell id="QV8q_15X7JUbRMDC0rht-187" value="&lt;font face=&quot;新宋体&quot;&gt;属于&lt;/font&gt;" style="shape=rhombus;perimeter=rhombusPerimeter;whiteSpace=wrap;html=1;align=center;" parent="1" vertex="1">
          <mxGeometry x="499.97" y="260" width="120" height="60" as="geometry" />
        </mxCell>
        <mxCell id="SZYX7Au4rPHvlYyn9Vcu-39" style="edgeStyle=orthogonalEdgeStyle;rounded=0;orthogonalLoop=1;jettySize=auto;html=1;exitX=0.5;exitY=0;exitDx=0;exitDy=0;entryX=0.5;entryY=1;entryDx=0;entryDy=0;" parent="1" source="QV8q_15X7JUbRMDC0rht-188" target="84Wg8D0-4yVSgBaiV-lj-15" edge="1">
          <mxGeometry relative="1" as="geometry" />
        </mxCell>
        <mxCell id="QV8q_15X7JUbRMDC0rht-188" value="&lt;font face=&quot;新宋体&quot;&gt;属于&lt;/font&gt;" style="shape=rhombus;perimeter=rhombusPerimeter;whiteSpace=wrap;html=1;align=center;" parent="1" vertex="1">
          <mxGeometry x="920.03" y="310" width="120" height="60" as="geometry" />
        </mxCell>
        <mxCell id="QV8q_15X7JUbRMDC0rht-189" value="&lt;font face=&quot;新宋体&quot;&gt;发布&lt;/font&gt;" style="shape=rhombus;perimeter=rhombusPerimeter;whiteSpace=wrap;html=1;align=center;" parent="1" vertex="1">
          <mxGeometry x="920" y="810" width="120" height="60" as="geometry" />
        </mxCell>
        <mxCell id="QV8q_15X7JUbRMDC0rht-191" value="" style="endArrow=classic;html=1;rounded=0;entryX=0.5;entryY=1;entryDx=0;entryDy=0;exitX=0.5;exitY=0;exitDx=0;exitDy=0;" parent="1" source="QV8q_15X7JUbRMDC0rht-187" target="84Wg8D0-4yVSgBaiV-lj-13" edge="1">
          <mxGeometry width="50" height="50" relative="1" as="geometry">
            <mxPoint x="559.9400000000003" y="240" as="sourcePoint" />
            <mxPoint x="379.97" y="280" as="targetPoint" />
          </mxGeometry>
        </mxCell>
        <mxCell id="QV8q_15X7JUbRMDC0rht-192" value="" style="endArrow=classic;html=1;rounded=0;exitX=0.5;exitY=1;exitDx=0;exitDy=0;entryX=0.5;entryY=0;entryDx=0;entryDy=0;" parent="1" source="QV8q_15X7JUbRMDC0rht-189" target="FcLobYDYsunlRHYjwb2t-41" edge="1">
          <mxGeometry width="50" height="50" relative="1" as="geometry">
            <mxPoint x="1070" y="785" as="sourcePoint" />
            <mxPoint x="820" y="725" as="targetPoint" />
          </mxGeometry>
        </mxCell>
        <mxCell id="QV8q_15X7JUbRMDC0rht-193" value="" style="endArrow=none;html=1;rounded=0;exitX=0.5;exitY=1;exitDx=0;exitDy=0;entryX=0.5;entryY=0;entryDx=0;entryDy=0;" parent="1" source="84Wg8D0-4yVSgBaiV-lj-19" target="QV8q_15X7JUbRMDC0rht-189" edge="1">
          <mxGeometry width="50" height="50" relative="1" as="geometry">
            <mxPoint x="810" y="1005" as="sourcePoint" />
            <mxPoint x="860" y="955" as="targetPoint" />
          </mxGeometry>
        </mxCell>
        <mxCell id="SZYX7Au4rPHvlYyn9Vcu-4" style="edgeStyle=orthogonalEdgeStyle;rounded=0;orthogonalLoop=1;jettySize=auto;html=1;exitX=0;exitY=0.75;exitDx=0;exitDy=0;entryX=1;entryY=0.75;entryDx=0;entryDy=0;" parent="1" source="FcLobYDYsunlRHYjwb2t-62" target="FcLobYDYsunlRHYjwb2t-62" edge="1">
          <mxGeometry relative="1" as="geometry">
            <Array as="points">
              <mxPoint x="450" y="1310" />
              <mxPoint x="450" y="1360" />
              <mxPoint x="670" y="1360" />
              <mxPoint x="670" y="1310" />
            </Array>
          </mxGeometry>
        </mxCell>
        <mxCell id="QV8q_15X7JUbRMDC0rht-17" value="&lt;font face=&quot;新宋体&quot;&gt;发布&lt;/font&gt;" style="shape=rhombus;perimeter=rhombusPerimeter;whiteSpace=wrap;html=1;align=center;" parent="1" vertex="1">
          <mxGeometry x="1130" y="1020" width="120" height="60" as="geometry" />
        </mxCell>
        <mxCell id="QV8q_15X7JUbRMDC0rht-20" value="&lt;font face=&quot;新宋体&quot;&gt;发布&lt;/font&gt;" style="shape=rhombus;perimeter=rhombusPerimeter;whiteSpace=wrap;html=1;align=center;" parent="1" vertex="1">
          <mxGeometry x="1130" y="1190" width="120" height="60" as="geometry" />
        </mxCell>
        <mxCell id="QV8q_15X7JUbRMDC0rht-107" value="&lt;font face=&quot;新宋体&quot;&gt;举报&lt;/font&gt;" style="shape=rhombus;perimeter=rhombusPerimeter;whiteSpace=wrap;html=1;align=center;" parent="1" vertex="1">
          <mxGeometry x="1130" y="860" width="120" height="60" as="geometry" />
        </mxCell>
        <mxCell id="QV8q_15X7JUbRMDC0rht-119" value="&lt;font face=&quot;新宋体&quot;&gt;举报&lt;/font&gt;" style="shape=rhombus;perimeter=rhombusPerimeter;whiteSpace=wrap;html=1;align=center;" parent="1" vertex="1">
          <mxGeometry x="1130" y="1340" width="120" height="60" as="geometry" />
        </mxCell>
        <mxCell id="QV8q_15X7JUbRMDC0rht-42" value="&lt;font face=&quot;新宋体&quot;&gt;发布&lt;/font&gt;" style="shape=rhombus;perimeter=rhombusPerimeter;whiteSpace=wrap;html=1;align=center;" parent="1" vertex="1">
          <mxGeometry x="710" y="1010" width="120" height="60" as="geometry" />
        </mxCell>
        <mxCell id="QV8q_15X7JUbRMDC0rht-45" value="&lt;font face=&quot;新宋体&quot;&gt;发布&lt;/font&gt;" style="shape=rhombus;perimeter=rhombusPerimeter;whiteSpace=wrap;html=1;align=center;" parent="1" vertex="1">
          <mxGeometry x="710" y="1180" width="120" height="60" as="geometry" />
        </mxCell>
        <mxCell id="QV8q_15X7JUbRMDC0rht-137" value="&lt;font face=&quot;新宋体&quot;&gt;举报&lt;/font&gt;" style="shape=rhombus;perimeter=rhombusPerimeter;whiteSpace=wrap;html=1;align=center;" parent="1" vertex="1">
          <mxGeometry x="710" y="1330" width="120" height="60" as="geometry" />
        </mxCell>
        <mxCell id="SZYX7Au4rPHvlYyn9Vcu-26" value="" style="endArrow=none;html=1;rounded=0;exitX=1;exitY=0.5;exitDx=0;exitDy=0;entryX=1;entryY=0.5;entryDx=0;entryDy=0;" parent="1" source="FcLobYDYsunlRHYjwb2t-40" target="QV8q_15X7JUbRMDC0rht-28" edge="1">
          <mxGeometry width="50" height="50" relative="1" as="geometry">
            <mxPoint x="1070" y="1050" as="sourcePoint" />
            <mxPoint x="1190" y="550" as="targetPoint" />
            <Array as="points">
              <mxPoint x="1190" y="520" />
              <mxPoint x="1840" y="520" />
              <mxPoint x="1840" y="800" />
            </Array>
          </mxGeometry>
        </mxCell>
        <mxCell id="SZYX7Au4rPHvlYyn9Vcu-27" value="" style="endArrow=none;html=1;rounded=0;entryX=1;entryY=0.5;entryDx=0;entryDy=0;" parent="1" target="QV8q_15X7JUbRMDC0rht-82" edge="1">
          <mxGeometry width="50" height="50" relative="1" as="geometry">
            <mxPoint x="1060" y="1110" as="sourcePoint" />
            <mxPoint x="1170" y="520" as="targetPoint" />
            <Array as="points">
              <mxPoint x="1170" y="500" />
              <mxPoint x="1860" y="500" />
              <mxPoint x="1860" y="940" />
            </Array>
          </mxGeometry>
        </mxCell>
        <mxCell id="SZYX7Au4rPHvlYyn9Vcu-28" value="" style="endArrow=none;html=1;rounded=0;entryX=1;entryY=0.5;entryDx=0;entryDy=0;" parent="1" target="QV8q_15X7JUbRMDC0rht-94" edge="1">
          <mxGeometry width="50" height="50" relative="1" as="geometry">
            <mxPoint x="1060" y="1100" as="sourcePoint" />
            <mxPoint x="1150" y="490" as="targetPoint" />
            <Array as="points">
              <mxPoint x="1150" y="480" />
              <mxPoint x="1880" y="480" />
              <mxPoint x="1880" y="1080" />
            </Array>
          </mxGeometry>
        </mxCell>
        <mxCell id="SZYX7Au4rPHvlYyn9Vcu-29" value="" style="endArrow=none;html=1;rounded=0;entryX=1;entryY=0.5;entryDx=0;entryDy=0;" parent="1" target="QV8q_15X7JUbRMDC0rht-98" edge="1">
          <mxGeometry width="50" height="50" relative="1" as="geometry">
            <mxPoint x="1060" y="1090" as="sourcePoint" />
            <mxPoint x="1130" y="460" as="targetPoint" />
            <Array as="points">
              <mxPoint x="1130" y="460" />
              <mxPoint x="1900" y="460" />
              <mxPoint x="1900" y="1220" />
            </Array>
          </mxGeometry>
        </mxCell>
        <mxCell id="SZYX7Au4rPHvlYyn9Vcu-30" value="" style="endArrow=none;html=1;rounded=0;entryX=1;entryY=0.5;entryDx=0;entryDy=0;" parent="1" target="QV8q_15X7JUbRMDC0rht-102" edge="1">
          <mxGeometry width="50" height="50" relative="1" as="geometry">
            <mxPoint x="1060" y="1080" as="sourcePoint" />
            <mxPoint x="1110" y="430" as="targetPoint" />
            <Array as="points">
              <mxPoint x="1110" y="440" />
              <mxPoint x="1920" y="440" />
              <mxPoint x="1920" y="1360" />
            </Array>
          </mxGeometry>
        </mxCell>
        <mxCell id="SZYX7Au4rPHvlYyn9Vcu-31" value="" style="endArrow=none;html=1;rounded=0;exitX=0;exitY=0.5;exitDx=0;exitDy=0;" parent="1" source="QV8q_15X7JUbRMDC0rht-171" edge="1">
          <mxGeometry width="50" height="50" relative="1" as="geometry">
            <mxPoint x="850" y="430" as="sourcePoint" />
            <mxPoint x="900" y="1080" as="targetPoint" />
            <Array as="points">
              <mxPoint x="40" y="1360" />
              <mxPoint x="40" y="440" />
              <mxPoint x="850" y="440" />
            </Array>
          </mxGeometry>
        </mxCell>
        <mxCell id="SZYX7Au4rPHvlYyn9Vcu-32" value="" style="endArrow=none;html=1;rounded=0;exitX=0;exitY=0.5;exitDx=0;exitDy=0;" parent="1" source="QV8q_15X7JUbRMDC0rht-168" edge="1">
          <mxGeometry width="50" height="50" relative="1" as="geometry">
            <mxPoint x="830" y="460" as="sourcePoint" />
            <mxPoint x="900" y="1090" as="targetPoint" />
            <Array as="points">
              <mxPoint x="60" y="1220" />
              <mxPoint x="60" y="460" />
              <mxPoint x="830" y="460" />
            </Array>
          </mxGeometry>
        </mxCell>
        <mxCell id="SZYX7Au4rPHvlYyn9Vcu-33" value="" style="endArrow=none;html=1;rounded=0;entryX=0;entryY=0.45;entryDx=0;entryDy=0;entryPerimeter=0;exitX=0;exitY=0.5;exitDx=0;exitDy=0;" parent="1" source="QV8q_15X7JUbRMDC0rht-165" target="FcLobYDYsunlRHYjwb2t-40" edge="1">
          <mxGeometry width="50" height="50" relative="1" as="geometry">
            <mxPoint x="810" y="490" as="sourcePoint" />
            <mxPoint x="890" y="1100" as="targetPoint" />
            <Array as="points">
              <mxPoint x="80" y="1080" />
              <mxPoint x="80" y="480" />
              <mxPoint x="810" y="480" />
            </Array>
          </mxGeometry>
        </mxCell>
        <mxCell id="SZYX7Au4rPHvlYyn9Vcu-34" value="" style="endArrow=none;html=1;rounded=0;exitX=0;exitY=0.5;exitDx=0;exitDy=0;" parent="1" source="QV8q_15X7JUbRMDC0rht-162" edge="1">
          <mxGeometry width="50" height="50" relative="1" as="geometry">
            <mxPoint x="790" y="520" as="sourcePoint" />
            <mxPoint x="900" y="1110" as="targetPoint" />
            <Array as="points">
              <mxPoint x="100" y="940" />
              <mxPoint x="100" y="500" />
              <mxPoint x="790" y="500" />
            </Array>
          </mxGeometry>
        </mxCell>
        <mxCell id="SZYX7Au4rPHvlYyn9Vcu-35" value="" style="endArrow=none;html=1;rounded=0;entryX=0;entryY=0.5;entryDx=0;entryDy=0;exitX=0;exitY=0.5;exitDx=0;exitDy=0;" parent="1" source="QV8q_15X7JUbRMDC0rht-159" target="FcLobYDYsunlRHYjwb2t-40" edge="1">
          <mxGeometry width="50" height="50" relative="1" as="geometry">
            <mxPoint x="770" y="550" as="sourcePoint" />
            <mxPoint x="870" y="990" as="targetPoint" />
            <Array as="points">
              <mxPoint x="120" y="800" />
              <mxPoint x="120" y="520" />
              <mxPoint x="770" y="520" />
            </Array>
          </mxGeometry>
        </mxCell>
        <mxCell id="8IIWbgOfYEv6ufVQHXfe-1" value="&lt;b&gt;&lt;font face=&quot;新宋体&quot;&gt;开发团队&lt;/font&gt;&lt;/b&gt;" style="whiteSpace=wrap;html=1;align=center;fillColor=#647687;fontColor=#ffffff;strokeColor=#314354;" parent="1" vertex="1">
          <mxGeometry x="180" y="1820" width="160" height="30" as="geometry" />
        </mxCell>
        <mxCell id="8IIWbgOfYEv6ufVQHXfe-2" value="&lt;div style=&quot;border-color: var(--border-color);&quot;&gt;&lt;font face=&quot;新宋体&quot;&gt;&lt;u&gt;学号&lt;/u&gt;&lt;/font&gt;&lt;/div&gt;&lt;div style=&quot;border-color: var(--border-color);&quot;&gt;&lt;font face=&quot;新宋体&quot;&gt;姓名&lt;/font&gt;&lt;/div&gt;&lt;div style=&quot;border-color: var(--border-color);&quot;&gt;&lt;font face=&quot;新宋体&quot;&gt;学校&lt;/font&gt;&lt;/div&gt;&lt;div style=&quot;border-color: var(--border-color);&quot;&gt;&lt;font face=&quot;新宋体&quot;&gt;电子邮箱&lt;/font&gt;&lt;/div&gt;&lt;div style=&quot;border-color: var(--border-color);&quot;&gt;&lt;font face=&quot;新宋体&quot;&gt;GitHub名称&lt;/font&gt;&lt;/div&gt;&lt;div style=&quot;border-color: var(--border-color);&quot;&gt;&lt;font face=&quot;新宋体&quot;&gt;GitHub主页&lt;/font&gt;&lt;/div&gt;" style="whiteSpace=wrap;html=1;align=center;" parent="1" vertex="1">
          <mxGeometry x="180" y="1850" width="160" height="100" as="geometry" />
        </mxCell>
        <mxCell id="pFvbjGyhtthrjW876RB9-1" value="&lt;font face=&quot;新宋体&quot;&gt;被关注者ID&lt;/font&gt;" style="text;html=1;strokeColor=none;fillColor=none;align=center;verticalAlign=middle;whiteSpace=wrap;rounded=0;" parent="1" vertex="1">
          <mxGeometry x="480" y="1800" width="70" height="30" as="geometry" />
        </mxCell>
        <mxCell id="pFvbjGyhtthrjW876RB9-2" value="&lt;font face=&quot;新宋体&quot;&gt;关注者ID&lt;/font&gt;" style="text;html=1;strokeColor=none;fillColor=none;align=center;verticalAlign=middle;whiteSpace=wrap;rounded=0;" parent="1" vertex="1">
          <mxGeometry x="619.97" y="1800" width="60" height="30" as="geometry" />
        </mxCell>
        <mxCell id="pFvbjGyhtthrjW876RB9-3" value="&lt;font face=&quot;新宋体&quot;&gt;用户ID&lt;/font&gt;" style="text;html=1;strokeColor=none;fillColor=none;align=center;verticalAlign=middle;whiteSpace=wrap;rounded=0;" parent="1" vertex="1">
          <mxGeometry x="1289.97" y="1800" width="50.03" height="30" as="geometry" />
        </mxCell>
        <mxCell id="pFvbjGyhtthrjW876RB9-4" value="&lt;font face=&quot;新宋体&quot;&gt;留言者ID&lt;/font&gt;" style="text;html=1;strokeColor=none;fillColor=none;align=center;verticalAlign=middle;whiteSpace=wrap;rounded=0;" parent="1" vertex="1">
          <mxGeometry x="1409.97" y="1800" width="60.03" height="30" as="geometry" />
        </mxCell>
        <mxCell id="pFvbjGyhtthrjW876RB9-12" value="" style="endArrow=classic;html=1;rounded=0;exitX=0.5;exitY=0;exitDx=0;exitDy=0;entryX=0.313;entryY=1;entryDx=0;entryDy=0;entryPerimeter=0;" parent="1" source="QV8q_15X7JUbRMDC0rht-3" target="FcLobYDYsunlRHYjwb2t-40" edge="1">
          <mxGeometry width="50" height="50" relative="1" as="geometry">
            <mxPoint x="850" y="1590" as="sourcePoint" />
            <mxPoint x="950" y="1330" as="targetPoint" />
          </mxGeometry>
        </mxCell>
        <mxCell id="pFvbjGyhtthrjW876RB9-17" value="" style="endArrow=none;html=1;rounded=0;entryX=0.5;entryY=1;entryDx=0;entryDy=0;exitX=0.5;exitY=0;exitDx=0;exitDy=0;" parent="1" source="FcLobYDYsunlRHYjwb2t-45" target="84Wg8D0-4yVSgBaiV-lj-23" edge="1">
          <mxGeometry width="50" height="50" relative="1" as="geometry">
            <mxPoint x="1120" y="1990" as="sourcePoint" />
            <mxPoint x="1130" y="1810" as="targetPoint" />
          </mxGeometry>
        </mxCell>
        <mxCell id="pFvbjGyhtthrjW876RB9-19" value="" style="endArrow=classic;html=1;rounded=0;exitX=0.5;exitY=0;exitDx=0;exitDy=0;entryX=0.688;entryY=1;entryDx=0;entryDy=0;entryPerimeter=0;" parent="1" source="84Wg8D0-4yVSgBaiV-lj-23" target="FcLobYDYsunlRHYjwb2t-40" edge="1">
          <mxGeometry width="50" height="50" relative="1" as="geometry">
            <mxPoint x="1060" y="1610" as="sourcePoint" />
            <mxPoint x="1000" y="1330" as="targetPoint" />
          </mxGeometry>
        </mxCell>
        <mxCell id="pFvbjGyhtthrjW876RB9-22" value="" style="endArrow=none;html=1;rounded=0;entryX=0.5;entryY=1;entryDx=0;entryDy=0;exitX=0.5;exitY=0;exitDx=0;exitDy=0;" parent="1" source="FcLobYDYsunlRHYjwb2t-61" target="QV8q_15X7JUbRMDC0rht-39" edge="1">
          <mxGeometry width="50" height="50" relative="1" as="geometry">
            <mxPoint x="430" y="1200" as="sourcePoint" />
            <mxPoint x="480" y="1150" as="targetPoint" />
          </mxGeometry>
        </mxCell>
        <mxCell id="pFvbjGyhtthrjW876RB9-24" value="" style="endArrow=none;html=1;rounded=0;entryX=0.5;entryY=1;entryDx=0;entryDy=0;exitX=0.5;exitY=0;exitDx=0;exitDy=0;" parent="1" source="84Wg8D0-4yVSgBaiV-lj-5" target="QV8q_15X7JUbRMDC0rht-130" edge="1">
          <mxGeometry width="50" height="50" relative="1" as="geometry">
            <mxPoint x="460" y="1480" as="sourcePoint" />
            <mxPoint x="510" y="1430" as="targetPoint" />
          </mxGeometry>
        </mxCell>
        <mxCell id="pFvbjGyhtthrjW876RB9-26" value="" style="endArrow=none;html=1;rounded=0;entryX=0.5;entryY=1;entryDx=0;entryDy=0;exitX=0.5;exitY=0;exitDx=0;exitDy=0;" parent="1" source="QV8q_15X7JUbRMDC0rht-108" target="FcLobYDYsunlRHYjwb2t-58" edge="1">
          <mxGeometry width="50" height="50" relative="1" as="geometry">
            <mxPoint x="1340" y="770" as="sourcePoint" />
            <mxPoint x="1390" y="720" as="targetPoint" />
          </mxGeometry>
        </mxCell>
        <mxCell id="pFvbjGyhtthrjW876RB9-28" value="" style="endArrow=none;html=1;rounded=0;entryX=0.5;entryY=1;entryDx=0;entryDy=0;exitX=0.5;exitY=0;exitDx=0;exitDy=0;" parent="1" source="FcLobYDYsunlRHYjwb2t-54" target="QV8q_15X7JUbRMDC0rht-23" edge="1">
          <mxGeometry width="50" height="50" relative="1" as="geometry">
            <mxPoint x="1260" y="1200" as="sourcePoint" />
            <mxPoint x="1310" y="1150" as="targetPoint" />
          </mxGeometry>
        </mxCell>
        <mxCell id="pFvbjGyhtthrjW876RB9-30" value="" style="endArrow=none;html=1;rounded=0;entryX=0.5;entryY=1;entryDx=0;entryDy=0;exitX=0.5;exitY=0;exitDx=0;exitDy=0;" parent="1" source="FcLobYDYsunlRHYjwb2t-63" target="QV8q_15X7JUbRMDC0rht-116" edge="1">
          <mxGeometry width="50" height="50" relative="1" as="geometry">
            <mxPoint x="1270" y="1480" as="sourcePoint" />
            <mxPoint x="1320" y="1430" as="targetPoint" />
          </mxGeometry>
        </mxCell>
        <mxCell id="pFvbjGyhtthrjW876RB9-35" value="" style="endArrow=none;html=1;rounded=0;entryX=0;entryY=0.5;entryDx=0;entryDy=0;" parent="1" source="QV8q_15X7JUbRMDC0rht-107" target="FcLobYDYsunlRHYjwb2t-58" edge="1">
          <mxGeometry width="50" height="50" relative="1" as="geometry">
            <mxPoint x="1240" y="770" as="sourcePoint" />
            <mxPoint x="1290" y="720" as="targetPoint" />
          </mxGeometry>
        </mxCell>
        <mxCell id="pFvbjGyhtthrjW876RB9-36" value="" style="endArrow=none;html=1;rounded=0;entryX=0;entryY=0.5;entryDx=0;entryDy=0;" parent="1" source="QV8q_15X7JUbRMDC0rht-119" target="FcLobYDYsunlRHYjwb2t-64" edge="1">
          <mxGeometry width="50" height="50" relative="1" as="geometry">
            <mxPoint x="1220" y="1480" as="sourcePoint" />
            <mxPoint x="1270" y="1430" as="targetPoint" />
          </mxGeometry>
        </mxCell>
        <mxCell id="pFvbjGyhtthrjW876RB9-37" value="" style="endArrow=none;html=1;rounded=0;exitX=1;exitY=0.5;exitDx=0;exitDy=0;" parent="1" source="84Wg8D0-4yVSgBaiV-lj-6" target="QV8q_15X7JUbRMDC0rht-137" edge="1">
          <mxGeometry width="50" height="50" relative="1" as="geometry">
            <mxPoint x="700" y="1460" as="sourcePoint" />
            <mxPoint x="700" y="1410" as="targetPoint" />
          </mxGeometry>
        </mxCell>
        <mxCell id="pFvbjGyhtthrjW876RB9-44" value="" style="endArrow=classic;html=1;rounded=0;exitX=0;exitY=0;exitDx=0;exitDy=0;entryX=0;entryY=0.575;entryDx=0;entryDy=0;entryPerimeter=0;" parent="1" source="QV8q_15X7JUbRMDC0rht-137" target="FcLobYDYsunlRHYjwb2t-40" edge="1">
          <mxGeometry width="50" height="50" relative="1" as="geometry">
            <mxPoint x="750" y="1300" as="sourcePoint" />
            <mxPoint x="880" y="1170" as="targetPoint" />
          </mxGeometry>
        </mxCell>
        <mxCell id="pFvbjGyhtthrjW876RB9-45" value="" style="endArrow=classic;html=1;rounded=0;exitX=1;exitY=0;exitDx=0;exitDy=0;entryX=0;entryY=0.6;entryDx=0;entryDy=0;entryPerimeter=0;" parent="1" source="QV8q_15X7JUbRMDC0rht-137" target="FcLobYDYsunlRHYjwb2t-40" edge="1">
          <mxGeometry width="50" height="50" relative="1" as="geometry">
            <mxPoint x="820" y="1350" as="sourcePoint" />
            <mxPoint x="890" y="1170" as="targetPoint" />
          </mxGeometry>
        </mxCell>
        <mxCell id="pFvbjGyhtthrjW876RB9-46" value="" style="endArrow=classic;html=1;rounded=0;exitX=1;exitY=0;exitDx=0;exitDy=0;entryX=1;entryY=0.625;entryDx=0;entryDy=0;entryPerimeter=0;" parent="1" source="QV8q_15X7JUbRMDC0rht-119" target="FcLobYDYsunlRHYjwb2t-40" edge="1">
          <mxGeometry width="50" height="50" relative="1" as="geometry">
            <mxPoint x="1140" y="1330" as="sourcePoint" />
            <mxPoint x="1070" y="1170" as="targetPoint" />
          </mxGeometry>
        </mxCell>
        <mxCell id="pFvbjGyhtthrjW876RB9-47" value="" style="endArrow=classic;html=1;rounded=0;exitX=0;exitY=0;exitDx=0;exitDy=0;entryX=1;entryY=0.65;entryDx=0;entryDy=0;entryPerimeter=0;" parent="1" source="QV8q_15X7JUbRMDC0rht-119" target="FcLobYDYsunlRHYjwb2t-40" edge="1">
          <mxGeometry width="50" height="50" relative="1" as="geometry">
            <mxPoint x="1100" y="1370" as="sourcePoint" />
            <mxPoint x="1070" y="1180" as="targetPoint" />
          </mxGeometry>
        </mxCell>
        <mxCell id="pFvbjGyhtthrjW876RB9-48" value="" style="endArrow=classic;html=1;rounded=0;exitX=0;exitY=1;exitDx=0;exitDy=0;entryX=1;entryY=0.525;entryDx=0;entryDy=0;entryPerimeter=0;" parent="1" source="QV8q_15X7JUbRMDC0rht-107" target="FcLobYDYsunlRHYjwb2t-40" edge="1">
          <mxGeometry width="50" height="50" relative="1" as="geometry">
            <mxPoint x="1120" y="1020" as="sourcePoint" />
            <mxPoint x="1170" y="970" as="targetPoint" />
          </mxGeometry>
        </mxCell>
        <mxCell id="pFvbjGyhtthrjW876RB9-49" value="" style="endArrow=classic;html=1;rounded=0;exitX=1;exitY=1;exitDx=0;exitDy=0;entryX=1;entryY=0.55;entryDx=0;entryDy=0;entryPerimeter=0;" parent="1" source="QV8q_15X7JUbRMDC0rht-107" target="FcLobYDYsunlRHYjwb2t-40" edge="1">
          <mxGeometry width="50" height="50" relative="1" as="geometry">
            <mxPoint x="1210" y="940" as="sourcePoint" />
            <mxPoint x="1070" y="1140" as="targetPoint" />
          </mxGeometry>
        </mxCell>
        <mxCell id="pFvbjGyhtthrjW876RB9-50" value="" style="endArrow=none;html=1;rounded=0;entryX=0;entryY=0.5;entryDx=0;entryDy=0;exitX=1;exitY=0.5;exitDx=0;exitDy=0;" parent="1" source="QV8q_15X7JUbRMDC0rht-133" target="84Wg8D0-4yVSgBaiV-lj-6" edge="1">
          <mxGeometry width="50" height="50" relative="1" as="geometry">
            <mxPoint x="390" y="1520" as="sourcePoint" />
            <mxPoint x="440" y="1470" as="targetPoint" />
          </mxGeometry>
        </mxCell>
        <mxCell id="pFvbjGyhtthrjW876RB9-51" value="" style="endArrow=none;html=1;rounded=0;entryX=1;entryY=0.5;entryDx=0;entryDy=0;exitX=0;exitY=0.5;exitDx=0;exitDy=0;" parent="1" source="QV8q_15X7JUbRMDC0rht-123" target="FcLobYDYsunlRHYjwb2t-64" edge="1">
          <mxGeometry width="50" height="50" relative="1" as="geometry">
            <mxPoint x="450" y="1585" as="sourcePoint" />
            <mxPoint x="490" y="1585" as="targetPoint" />
          </mxGeometry>
        </mxCell>
        <mxCell id="pFvbjGyhtthrjW876RB9-52" value="" style="endArrow=classic;html=1;rounded=0;exitX=0.5;exitY=0;exitDx=0;exitDy=0;entryX=0;entryY=1;entryDx=0;entryDy=0;" parent="1" source="QV8q_15X7JUbRMDC0rht-133" target="FcLobYDYsunlRHYjwb2t-60" edge="1">
          <mxGeometry width="50" height="50" relative="1" as="geometry">
            <mxPoint x="390" y="1470" as="sourcePoint" />
            <mxPoint x="440" y="1420" as="targetPoint" />
            <Array as="points">
              <mxPoint x="380" y="1120" />
            </Array>
          </mxGeometry>
        </mxCell>
        <mxCell id="pFvbjGyhtthrjW876RB9-53" value="" style="endArrow=classic;html=1;rounded=0;exitX=0.5;exitY=0;exitDx=0;exitDy=0;entryX=1;entryY=1;entryDx=0;entryDy=0;" parent="1" source="QV8q_15X7JUbRMDC0rht-123" target="FcLobYDYsunlRHYjwb2t-53" edge="1">
          <mxGeometry width="50" height="50" relative="1" as="geometry">
            <mxPoint x="1580" y="1450" as="sourcePoint" />
            <mxPoint x="1490" y="980" as="targetPoint" />
            <Array as="points">
              <mxPoint x="1580" y="1120" />
            </Array>
          </mxGeometry>
        </mxCell>
        <mxCell id="pFvbjGyhtthrjW876RB9-62" value="" style="endArrow=none;html=1;rounded=0;exitX=1;exitY=0.5;exitDx=0;exitDy=0;entryX=0;entryY=0.381;entryDx=0;entryDy=0;entryPerimeter=0;" parent="1" source="QV8q_15X7JUbRMDC0rht-159" target="FcLobYDYsunlRHYjwb2t-60" edge="1">
          <mxGeometry width="50" height="50" relative="1" as="geometry">
            <mxPoint x="410" y="880" as="sourcePoint" />
            <mxPoint x="470" y="920" as="targetPoint" />
          </mxGeometry>
        </mxCell>
        <mxCell id="pFvbjGyhtthrjW876RB9-63" value="" style="endArrow=none;html=1;rounded=0;exitX=1;exitY=0.5;exitDx=0;exitDy=0;entryX=0;entryY=0.476;entryDx=0;entryDy=0;entryPerimeter=0;" parent="1" source="QV8q_15X7JUbRMDC0rht-162" target="FcLobYDYsunlRHYjwb2t-60" edge="1">
          <mxGeometry width="50" height="50" relative="1" as="geometry">
            <mxPoint x="360" y="980" as="sourcePoint" />
            <mxPoint x="470" y="940" as="targetPoint" />
          </mxGeometry>
        </mxCell>
        <mxCell id="pFvbjGyhtthrjW876RB9-64" value="" style="endArrow=none;html=1;rounded=0;exitX=1;exitY=0.5;exitDx=0;exitDy=0;entryX=0;entryY=0.571;entryDx=0;entryDy=0;entryPerimeter=0;" parent="1" source="QV8q_15X7JUbRMDC0rht-165" target="FcLobYDYsunlRHYjwb2t-60" edge="1">
          <mxGeometry width="50" height="50" relative="1" as="geometry">
            <mxPoint x="360" y="1050" as="sourcePoint" />
            <mxPoint x="410" y="1000" as="targetPoint" />
          </mxGeometry>
        </mxCell>
        <mxCell id="pFvbjGyhtthrjW876RB9-65" value="" style="endArrow=none;html=1;rounded=0;exitX=1;exitY=0.5;exitDx=0;exitDy=0;entryX=0;entryY=0.5;entryDx=0;entryDy=0;" parent="1" source="QV8q_15X7JUbRMDC0rht-171" target="FcLobYDYsunlRHYjwb2t-62" edge="1">
          <mxGeometry width="50" height="50" relative="1" as="geometry">
            <mxPoint x="360" y="1300" as="sourcePoint" />
            <mxPoint x="410" y="1250" as="targetPoint" />
          </mxGeometry>
        </mxCell>
        <mxCell id="pFvbjGyhtthrjW876RB9-66" value="" style="endArrow=none;html=1;rounded=0;exitX=1;exitY=0.5;exitDx=0;exitDy=0;entryX=0;entryY=0.25;entryDx=0;entryDy=0;" parent="1" source="QV8q_15X7JUbRMDC0rht-168" target="FcLobYDYsunlRHYjwb2t-62" edge="1">
          <mxGeometry width="50" height="50" relative="1" as="geometry">
            <mxPoint x="410" y="1270" as="sourcePoint" />
            <mxPoint x="460" y="1220" as="targetPoint" />
          </mxGeometry>
        </mxCell>
        <mxCell id="pFvbjGyhtthrjW876RB9-67" value="" style="endArrow=none;html=1;rounded=0;entryX=0;entryY=0.5;entryDx=0;entryDy=0;exitX=1;exitY=0.25;exitDx=0;exitDy=0;" parent="1" source="FcLobYDYsunlRHYjwb2t-55" target="QV8q_15X7JUbRMDC0rht-98" edge="1">
          <mxGeometry width="50" height="50" relative="1" as="geometry">
            <mxPoint x="1610" y="1270" as="sourcePoint" />
            <mxPoint x="1660" y="1220" as="targetPoint" />
          </mxGeometry>
        </mxCell>
        <mxCell id="pFvbjGyhtthrjW876RB9-68" value="" style="endArrow=none;html=1;rounded=0;exitX=1;exitY=0.5;exitDx=0;exitDy=0;entryX=0;entryY=0.5;entryDx=0;entryDy=0;" parent="1" source="FcLobYDYsunlRHYjwb2t-55" target="QV8q_15X7JUbRMDC0rht-102" edge="1">
          <mxGeometry width="50" height="50" relative="1" as="geometry">
            <mxPoint x="1520" y="1320" as="sourcePoint" />
            <mxPoint x="1570" y="1270" as="targetPoint" />
          </mxGeometry>
        </mxCell>
        <mxCell id="pFvbjGyhtthrjW876RB9-69" value="" style="endArrow=none;html=1;rounded=0;entryX=0;entryY=0.5;entryDx=0;entryDy=0;exitX=1;exitY=0.353;exitDx=0;exitDy=0;exitPerimeter=0;" parent="1" source="FcLobYDYsunlRHYjwb2t-53" target="QV8q_15X7JUbRMDC0rht-82" edge="1">
          <mxGeometry width="50" height="50" relative="1" as="geometry">
            <mxPoint x="1510" y="940" as="sourcePoint" />
            <mxPoint x="1620" y="930" as="targetPoint" />
          </mxGeometry>
        </mxCell>
        <mxCell id="pFvbjGyhtthrjW876RB9-70" value="" style="endArrow=none;html=1;rounded=0;exitX=1;exitY=0.235;exitDx=0;exitDy=0;exitPerimeter=0;entryX=0;entryY=0.5;entryDx=0;entryDy=0;" parent="1" source="FcLobYDYsunlRHYjwb2t-53" target="QV8q_15X7JUbRMDC0rht-28" edge="1">
          <mxGeometry width="50" height="50" relative="1" as="geometry">
            <mxPoint x="1490" y="950" as="sourcePoint" />
            <mxPoint x="1630" y="900" as="targetPoint" />
          </mxGeometry>
        </mxCell>
        <mxCell id="pFvbjGyhtthrjW876RB9-71" value="" style="endArrow=none;html=1;rounded=0;entryX=0;entryY=0.5;entryDx=0;entryDy=0;exitX=1;exitY=0.471;exitDx=0;exitDy=0;exitPerimeter=0;" parent="1" source="FcLobYDYsunlRHYjwb2t-53" target="QV8q_15X7JUbRMDC0rht-94" edge="1">
          <mxGeometry width="50" height="50" relative="1" as="geometry">
            <mxPoint x="1500" y="960" as="sourcePoint" />
            <mxPoint x="1590" y="880" as="targetPoint" />
          </mxGeometry>
        </mxCell>
        <mxCell id="pFvbjGyhtthrjW876RB9-72" value="&lt;font face=&quot;新宋体&quot;&gt;被举报者ID&lt;/font&gt;" style="text;html=1;strokeColor=none;fillColor=none;align=center;verticalAlign=middle;whiteSpace=wrap;rounded=0;" parent="1" vertex="1">
          <mxGeometry x="700" y="1290" width="70" height="30" as="geometry" />
        </mxCell>
        <mxCell id="pFvbjGyhtthrjW876RB9-73" value="&lt;font face=&quot;新宋体&quot;&gt;举报者ID&lt;/font&gt;" style="text;html=1;strokeColor=none;fillColor=none;align=center;verticalAlign=middle;whiteSpace=wrap;rounded=0;" parent="1" vertex="1">
          <mxGeometry x="820" y="1290" width="70" height="30" as="geometry" />
        </mxCell>
        <mxCell id="pFvbjGyhtthrjW876RB9-74" value="&lt;font face=&quot;新宋体&quot;&gt;被举报者ID&lt;/font&gt;" style="text;html=1;strokeColor=none;fillColor=none;align=center;verticalAlign=middle;whiteSpace=wrap;rounded=0;" parent="1" vertex="1">
          <mxGeometry x="1180" y="1290" width="70" height="30" as="geometry" />
        </mxCell>
        <mxCell id="pFvbjGyhtthrjW876RB9-75" value="&lt;font face=&quot;新宋体&quot;&gt;举报者ID&lt;/font&gt;" style="text;html=1;strokeColor=none;fillColor=none;align=center;verticalAlign=middle;whiteSpace=wrap;rounded=0;" parent="1" vertex="1">
          <mxGeometry x="1070" y="1290" width="60" height="30" as="geometry" />
        </mxCell>
        <mxCell id="pFvbjGyhtthrjW876RB9-77" value="&lt;font face=&quot;新宋体&quot;&gt;被举报者ID&lt;/font&gt;" style="text;html=1;strokeColor=none;fillColor=none;align=center;verticalAlign=middle;whiteSpace=wrap;rounded=0;" parent="1" vertex="1">
          <mxGeometry x="1210" y="900" width="80" height="30" as="geometry" />
        </mxCell>
        <mxCell id="pFvbjGyhtthrjW876RB9-78" value="&lt;font face=&quot;新宋体&quot;&gt;举报者ID&lt;/font&gt;" style="text;html=1;strokeColor=none;fillColor=none;align=center;verticalAlign=middle;whiteSpace=wrap;rounded=0;" parent="1" vertex="1">
          <mxGeometry x="1100" y="900" width="60" height="30" as="geometry" />
        </mxCell>
        <mxCell id="pFvbjGyhtthrjW876RB9-80" value="" style="shape=link;html=1;rounded=0;entryX=0.5;entryY=0;entryDx=0;entryDy=0;exitX=0.5;exitY=1;exitDx=0;exitDy=0;" parent="1" source="QV8q_15X7JUbRMDC0rht-141" target="FcLobYDYsunlRHYjwb2t-59" edge="1">
          <mxGeometry relative="1" as="geometry">
            <mxPoint x="590" y="790" as="sourcePoint" />
            <mxPoint x="780" y="780" as="targetPoint" />
          </mxGeometry>
        </mxCell>
        <mxCell id="pFvbjGyhtthrjW876RB9-81" value="" style="resizable=0;html=1;whiteSpace=wrap;align=left;verticalAlign=bottom;" parent="pFvbjGyhtthrjW876RB9-80" connectable="0" vertex="1">
          <mxGeometry x="-1" relative="1" as="geometry" />
        </mxCell>
        <mxCell id="pFvbjGyhtthrjW876RB9-82" value="" style="resizable=0;html=1;whiteSpace=wrap;align=right;verticalAlign=bottom;" parent="pFvbjGyhtthrjW876RB9-80" connectable="0" vertex="1">
          <mxGeometry x="1" relative="1" as="geometry" />
        </mxCell>
        <mxCell id="pFvbjGyhtthrjW876RB9-83" value="" style="shape=link;html=1;rounded=0;exitX=1;exitY=0.5;exitDx=0;exitDy=0;entryX=0;entryY=0.5;entryDx=0;entryDy=0;" parent="1" source="QV8q_15X7JUbRMDC0rht-179" target="84Wg8D0-4yVSgBaiV-lj-15" edge="1">
          <mxGeometry relative="1" as="geometry">
            <mxPoint x="759.97" y="230" as="sourcePoint" />
            <mxPoint x="919.97" y="230" as="targetPoint" />
          </mxGeometry>
        </mxCell>
        <mxCell id="pFvbjGyhtthrjW876RB9-85" value="" style="shape=link;html=1;rounded=0;exitX=1;exitY=0.5;exitDx=0;exitDy=0;entryX=0;entryY=0.5;entryDx=0;entryDy=0;" parent="1" source="QV8q_15X7JUbRMDC0rht-183" target="84Wg8D0-4yVSgBaiV-lj-17" edge="1">
          <mxGeometry relative="1" as="geometry">
            <mxPoint x="1200" y="200" as="sourcePoint" />
            <mxPoint x="1270" y="200" as="targetPoint" />
          </mxGeometry>
        </mxCell>
        <mxCell id="pFvbjGyhtthrjW876RB9-86" value="" style="shape=link;html=1;rounded=0;exitX=0.5;exitY=1;exitDx=0;exitDy=0;entryX=0.5;entryY=0;entryDx=0;entryDy=0;" parent="1" source="QV8q_15X7JUbRMDC0rht-188" target="84Wg8D0-4yVSgBaiV-lj-18" edge="1">
          <mxGeometry relative="1" as="geometry">
            <mxPoint x="840" y="215" as="sourcePoint" />
            <mxPoint x="910" y="215" as="targetPoint" />
          </mxGeometry>
        </mxCell>
        <mxCell id="pFvbjGyhtthrjW876RB9-87" value="" style="shape=link;html=1;rounded=0;exitX=0.25;exitY=0;exitDx=0;exitDy=0;entryX=0.5;entryY=1;entryDx=0;entryDy=0;" parent="1" source="84Wg8D0-4yVSgBaiV-lj-18" target="QV8q_15X7JUbRMDC0rht-187" edge="1">
          <mxGeometry relative="1" as="geometry">
            <mxPoint x="990" y="400" as="sourcePoint" />
            <mxPoint x="990" y="440" as="targetPoint" />
            <Array as="points">
              <mxPoint x="940" y="400" />
              <mxPoint x="560" y="370" />
            </Array>
          </mxGeometry>
        </mxCell>
        <mxCell id="TbGFyrbv7UwYS78HEGfp-1" value="&lt;b&gt;&lt;font face=&quot;新宋体&quot;&gt;用户反馈&lt;/font&gt;&lt;/b&gt;" style="whiteSpace=wrap;html=1;align=center;fillColor=#647687;fontColor=#ffffff;strokeColor=#314354;" parent="1" vertex="1">
          <mxGeometry x="1620" y="1820" width="160" height="30" as="geometry" />
        </mxCell>
        <mxCell id="TbGFyrbv7UwYS78HEGfp-2" value="&lt;div style=&quot;border-color: var(--border-color);&quot;&gt;&lt;font face=&quot;新宋体&quot;&gt;&lt;u&gt;反馈意见ID&lt;/u&gt;&lt;/font&gt;&lt;/div&gt;&lt;div style=&quot;border-color: var(--border-color);&quot;&gt;&lt;font face=&quot;新宋体&quot;&gt;反馈类型&lt;/font&gt;&lt;/div&gt;&lt;div style=&quot;border-color: var(--border-color);&quot;&gt;&lt;font face=&quot;新宋体&quot;&gt;反馈内容&lt;/font&gt;&lt;/div&gt;&lt;div style=&quot;border-color: var(--border-color);&quot;&gt;&lt;font face=&quot;新宋体&quot;&gt;反馈时间&lt;/font&gt;&lt;/div&gt;&lt;div style=&quot;border-color: var(--border-color);&quot;&gt;&lt;font face=&quot;新宋体&quot;&gt;电子邮箱&lt;/font&gt;&lt;/div&gt;&lt;div style=&quot;border-color: var(--border-color);&quot;&gt;&lt;font face=&quot;新宋体&quot;&gt;手机号码&lt;/font&gt;&lt;/div&gt;" style="whiteSpace=wrap;html=1;align=center;" parent="1" vertex="1">
          <mxGeometry x="1620" y="1850" width="160" height="100" as="geometry" />
        </mxCell>
        <mxCell id="adVfLv-4bBM7vCodxd5T-1" value="&lt;b&gt;&lt;font face=&quot;新宋体&quot;&gt;帖子分类&lt;/font&gt;&lt;/b&gt;" style="whiteSpace=wrap;html=1;align=center;fillColor=#647687;fontColor=#ffffff;strokeColor=#314354;" parent="1" vertex="1">
          <mxGeometry x="1580" y="570" width="160" height="30" as="geometry" />
        </mxCell>
        <mxCell id="adVfLv-4bBM7vCodxd5T-2" value="&lt;div style=&quot;border-color: var(--border-color);&quot;&gt;&lt;u style=&quot;border-color: var(--border-color);&quot;&gt;&lt;font face=&quot;新宋体&quot;&gt;帖子分类ID&lt;/font&gt;&lt;/u&gt;&lt;/div&gt;&lt;div style=&quot;border-color: var(--border-color);&quot;&gt;&lt;font face=&quot;新宋体&quot;&gt;帖子分类&lt;/font&gt;&lt;/div&gt;" style="whiteSpace=wrap;html=1;align=center;" parent="1" vertex="1">
          <mxGeometry x="1580" y="600" width="160" height="40" as="geometry" />
        </mxCell>
        <mxCell id="adVfLv-4bBM7vCodxd5T-3" value="&lt;font face=&quot;新宋体&quot;&gt;拥有&lt;/font&gt;" style="shape=rhombus;perimeter=rhombusPerimeter;whiteSpace=wrap;html=1;align=center;" parent="1" vertex="1">
          <mxGeometry x="1520" y="700" width="120" height="60" as="geometry" />
        </mxCell>
        <mxCell id="adVfLv-4bBM7vCodxd5T-4" value="" style="endArrow=none;html=1;rounded=0;entryX=0.5;entryY=1;entryDx=0;entryDy=0;" parent="1" source="adVfLv-4bBM7vCodxd5T-3" target="adVfLv-4bBM7vCodxd5T-2" edge="1">
          <mxGeometry width="50" height="50" relative="1" as="geometry">
            <mxPoint x="1520" y="720" as="sourcePoint" />
            <mxPoint x="1570" y="670" as="targetPoint" />
          </mxGeometry>
        </mxCell>
        <mxCell id="adVfLv-4bBM7vCodxd5T-5" value="" style="shape=link;html=1;rounded=0;entryX=1;entryY=0;entryDx=0;entryDy=0;" parent="1" source="adVfLv-4bBM7vCodxd5T-3" target="FcLobYDYsunlRHYjwb2t-52" edge="1">
          <mxGeometry relative="1" as="geometry">
            <mxPoint x="1670" y="760" as="sourcePoint" />
            <mxPoint x="1640" y="780" as="targetPoint" />
          </mxGeometry>
        </mxCell>
        <mxCell id="adVfLv-4bBM7vCodxd5T-6" value="" style="resizable=0;html=1;whiteSpace=wrap;align=left;verticalAlign=bottom;" parent="adVfLv-4bBM7vCodxd5T-5" connectable="0" vertex="1">
          <mxGeometry x="-1" relative="1" as="geometry" />
        </mxCell>
        <mxCell id="adVfLv-4bBM7vCodxd5T-7" value="" style="resizable=0;html=1;whiteSpace=wrap;align=right;verticalAlign=bottom;" parent="adVfLv-4bBM7vCodxd5T-5" connectable="0" vertex="1">
          <mxGeometry x="1" relative="1" as="geometry" />
        </mxCell>
      </root>
    </mxGraphModel>
  </diagram>
</mxfile>
